<?xml version="1.0" encoding="UTF-8"?>
<!DOCTYPE svg PUBLIC "-//W3C//DTD SVG 1.1//EN" "http://www.w3.org/Graphics/SVG/1.1/DTD/svg11.dtd">
<!-- Creator: CorelDRAW -->
<svg xmlns="http://www.w3.org/2000/svg" xml:space="preserve" width="56.8662mm" height="56.8662mm" version="1.1" style="shape-rendering:geometricPrecision; text-rendering:geometricPrecision; image-rendering:optimizeQuality; fill-rule:evenodd; clip-rule:evenodd"
viewBox="0 0 5806.47 5806.47"
 xmlns:xlink="http://www.w3.org/1999/xlink"
 xmlns:xodm="http://www.corel.com/coreldraw/odm/2003">
 <defs>
  <style type="text/css">
   <![CDATA[
    .str0 {stroke:#FEFEFE;stroke-width:20.42;stroke-miterlimit:22.9256}
    .fil0 {fill:#FEFEFE}
    .fil1 {fill:#265D94}
   ]]>
  </style>
 </defs>
 <g id="Слой_x0020_1">
  <metadata id="CorelCorpID_0Corel-Layer"/>
  <circle class="fil0 str0" cx="2903.23" cy="2903.24" r="2893.03"/>
  <g>
   <path class="fil1" d="M3567.21 2439.82l226.21 811.75 402.37 0 0 78.84 -369.74 0 271.87 1022.21 65.25 -8.14 0 160.4 -81.56 -2.73 -54.37 198.47 -62.52 0 0 -312.65 -331.69 -1057.56 -206.6 0 0 157.68 -125.07 2.73 0 -160.41 -209.32 0 -326.25 1030.37 -5.43 339.84 -57.18 0 -48.66 -200.49 -90.02 -2.43 0 -150.84 59.61 0 281.48 -1012.89 -369.72 0 0 -84.75 394.41 0 226.8 -808.66 410.16 -0.74zm-451.61 813.95l250.21 -765.16 244.09 765.16 -184.52 0 0 -165.89 -116.81 0 0 165.89 -192.97 0zm245.79 -1516.71c162.4,0 294.04,131.63 294.04,294.02 0,162.4 -131.64,294.04 -294.04,294.04 -162.39,0 -294.03,-131.64 -294.03,-294.04 0,-162.39 131.64,-294.02 294.03,-294.02zm0 -163.5c252.69,0 457.51,204.85 457.51,457.52 0,252.7 -204.83,457.52 -457.51,457.52 -252.69,0 -457.52,-204.83 -457.52,-457.52 0,-252.68 204.84,-457.52 457.52,-457.52zm-117.26 15.16l0 -363.04 235.88 0 0 362.94 -235.88 0.1zm235.88 -0.1c-17.09,-3.37 -34.2,-6.76 -51.25,-9.26 -17.06,-2.52 -34.1,-4.15 -50.54,-4.96 -16.45,-0.84 -32.32,-0.84 -48.15,0.3 -15.85,1.12 -31.68,3.38 -46,5.91 -14.31,2.51 -27.13,5.32 -39.93,8.12l235.88 -0.1zm-322.96 851.94c12.28,5.47 24.56,10.95 37.82,16.09 13.25,5.14 27.47,9.94 43.74,14.33 16.28,4.39 34.61,8.35 53.35,11.2 18.73,2.85 37.85,4.55 50.23,5.43 12.38,0.89 18,0.95 31.34,0.15 13.33,-0.8 34.37,-2.46 53.92,-5.19 19.55,-2.72 37.64,-6.53 60.67,-13.84 23.04,-7.3 51.06,-18.11 65.07,-23.52 14.01,-5.4 14.01,-5.4 14.01,-5.4l-410.16 0.74z"/>
  </g>
  <path class="fil1" d="M2637.02 4011.31c3.9,-10.61 -0.95,0 51.29,-141.07l-968.83 0c-28.37,-1.87 -39.29,-4.7 -67.95,-14.56 -84.52,-29.14 -112.08,-123.56 -112.83,-194.72 -1.15,-109.03 52.68,-178.25 161.04,-196.3 18.8,-3.13 34.5,-3 53.37,-3l215.87 0 0 -1943.24 -301.06 0c-179.69,9.61 -295.59,158.4 -300.41,324.52 -17.94,616.66 -0.66,1260.26 -0.66,1879.92 -7.48,151.03 113.76,288.45 295.1,288.45 315.37,0 630.75,0 946.13,0 1.46,0 27.5,0 28.95,0zm1399.35 -141.07c47.75,141.07 0,0 47.75,141.07 130.92,0 277.56,0 408.46,0l0 -2174.67 -630.4 -1.63 -0.49 0c0.54,0.32 0.6,0.2 0.49,0 -0.19,-0.34 -0.92,-0.94 -0.49,0 69.58,151.89 0.49,0.02 69.58,151.89l424.74 -1.25 0 1884.59 -319.63 0zm-1259.91 -1883.34c74.1,-156.6 -1.27,0 74.1,-156.6l-738.88 -4.95 1.95 160.31 661.57 1.25 1.27 0z"/>
  <polygon class="fil1" points="3772.74,4011.31 2945.32,4011.31 2992.24,3870.24 3729.31,3870.24 "/>
 </g>
</svg>
