<?xml version="1.0" encoding="UTF-8"?>
<!DOCTYPE svg PUBLIC "-//W3C//DTD SVG 1.1//EN" "http://www.w3.org/Graphics/SVG/1.1/DTD/svg11.dtd">
<!-- Creator: CorelDRAW -->
<svg xmlns="http://www.w3.org/2000/svg" xml:space="preserve" width="210mm" height="297mm" version="1.1" style="shape-rendering:geometricPrecision; text-rendering:geometricPrecision; image-rendering:optimizeQuality; fill-rule:evenodd; clip-rule:evenodd"
viewBox="0 0 21000 29700"
 xmlns:xlink="http://www.w3.org/1999/xlink"
 xmlns:xodm="http://www.corel.com/coreldraw/odm/2003">
 <defs>
  <style type="text/css">
   <![CDATA[
    .str0 {stroke:#FEFEFE;stroke-width:20;stroke-miterlimit:22.9256}
    .str1 {stroke:#265D94;stroke-width:20;stroke-miterlimit:22.9256}
    .str2 {stroke:#265D94;stroke-width:20;stroke-miterlimit:22.9256;stroke-dasharray:40.000000 20.000000}
    .fil3 {fill:none}
    .fil0 {fill:#FEFEFE}
    .fil1 {fill:#265D94}
    .fil2 {fill:#265D94;fill-rule:nonzero}
   ]]>
  </style>
 </defs>
 <g id="Слой_x0020_1">
  <metadata id="CorelCorpID_0Corel-Layer"/>
  <circle class="fil0 str0" cx="11046.55" cy="11624.15" r="2833.31"/>
  <path class="fil1" d="M10080.11 10673.28l2.06 168.39 2355.4 0 0 1979.59 -2769.43 0c-29.8,-1.96 -41.28,-4.93 -71.38,-15.3 -88.79,-30.6 -117.74,-129.78 -118.52,-204.52 -1.21,-114.53 55.33,-187.25 169.16,-206.2 19.75,-3.29 36.24,-3.16 56.06,-3.16l226.75 0 0 -2041.2 -316.24 0c-188.74,10.1 -310.49,166.39 -315.56,340.88 -18.83,647.75 -0.69,1323.79 -0.69,1974.69 -7.86,158.64 119.49,303 309.97,303 991.11,0 1982.23,0 2973.34,0l0 -2284.29 -2500.92 -11.88z"/>
  <path class="fil2" d="M11499.98 12077.57c3.3,-2.2 6.61,-4.45 9.85,-6.71 3.19,-2.25 6.34,-4.52 9.37,-6.72 3.05,-2.22 5.97,-4.41 8.75,-6.51 2.78,-2.1 5.34,-4.1 7.73,-5.97 4.76,-3.77 8.71,-6.99 11.47,-9.27 1.4,-1.14 2.47,-2.04 3.2,-2.66 0.72,-0.62 1.11,-0.95 1.11,-0.95 0,0 -0.31,-2.2 -0.85,-6.03 -0.29,-1.92 -0.55,-4.25 -1.01,-6.92 -0.43,-2.66 -0.92,-5.67 -1.46,-8.94 -2.26,-13.1 -5.85,-30.49 -10.46,-47.61 -4.54,-17.14 -10.1,-33.99 -14.67,-46.47 -1.17,-3.11 -2.27,-5.95 -3.21,-8.49 -0.5,-1.25 -0.95,-2.43 -1.36,-3.52 -0.44,-1.09 -0.85,-2.08 -1.22,-2.99 -1.46,-3.58 -2.31,-5.62 -2.31,-5.62 0,0 -1.99,-0.37 -5.5,-0.99 -3.52,-0.62 -8.59,-1.42 -14.58,-2.28 -3.01,-0.46 -6.24,-0.91 -9.68,-1.36 -3.44,-0.44 -7.07,-0.85 -10.82,-1.26 -3.74,-0.41 -7.6,-0.78 -11.49,-1.13 -3.91,-0.35 -7.91,-0.64 -11.89,-0.91 -3.95,-0.25 -7.91,-0.47 -11.78,-0.66 -1.69,-0.06 -3.38,-0.12 -5.02,-0.18 -6.95,-13.46 -14.51,-26.54 -22.68,-39.23 2.55,-4.84 5.1,-9.86 7.66,-14.99 3.52,-7.15 6.82,-14.36 9.87,-21.26 3.07,-6.92 5.7,-13.41 7.97,-19.05 2.28,-5.69 4.06,-10.45 5.27,-13.78 1.24,-3.34 1.92,-5.28 1.92,-5.28 0,0 -1.36,-1.75 -3.71,-4.82 -1.22,-1.5 -2.68,-3.34 -4.39,-5.44 -1.69,-2.1 -3.56,-4.49 -5.73,-7 -2.16,-2.53 -4.44,-5.29 -6.94,-8.18 -2.53,-2.84 -5.19,-5.85 -7.95,-8.94 -2.82,-3.05 -5.75,-6.18 -8.71,-9.37 -3.05,-3.11 -6.14,-6.28 -9.23,-9.46 -3.17,-3.09 -6.34,-6.18 -9.46,-9.22 -3.19,-2.97 -6.32,-5.9 -9.37,-8.72 -3.09,-2.76 -6.1,-5.42 -8.94,-7.95 -2.88,-2.49 -5.64,-4.78 -8.18,-6.94 -2.51,-2.16 -4.9,-4.04 -7,-5.73 -2.1,-1.69 -3.93,-3.17 -5.44,-4.38 -3.07,-2.35 -4.82,-3.71 -4.82,-3.71 0,0 -1.93,0.68 -5.27,1.91 -3.34,1.22 -8.1,2.99 -13.78,5.28 -5.65,2.26 -12.13,4.9 -19.04,7.97 -6.92,3.05 -14.13,6.34 -21.27,9.87 -5.13,2.55 -10.16,5.1 -15,7.66 -12.69,-8.18 -25.77,-15.74 -39.22,-22.68 -0.06,-1.65 -0.12,-3.34 -0.19,-5.03 -0.18,-3.87 -0.41,-7.83 -0.66,-11.78 -0.26,-3.98 -0.55,-7.97 -0.9,-11.89 -0.35,-3.89 -0.72,-7.74 -1.13,-11.49 -0.42,-3.75 -0.83,-7.37 -1.26,-10.81 -0.45,-3.44 -0.91,-6.68 -1.36,-9.69 -0.87,-5.99 -1.67,-11.06 -2.29,-14.58 -0.62,-3.5 -0.99,-5.5 -0.99,-5.5 0,0 -2.04,-0.85 -5.62,-2.31 -0.91,-0.37 -1.89,-0.78 -2.99,-1.21 -1.09,-0.42 -2.26,-0.87 -3.52,-1.36 -2.53,-0.95 -5.38,-2.04 -8.49,-3.22 -12.48,-4.57 -29.33,-10.13 -46.47,-14.66 -17.12,-4.62 -34.5,-8.2 -47.6,-10.47 -3.28,-0.53 -6.28,-1.03 -8.94,-1.46 -2.66,-0.45 -5.01,-0.72 -6.92,-1.01 -3.83,-0.53 -6.04,-0.84 -6.04,-0.84 0,0 -0.33,0.39 -0.95,1.11 -0.59,0.72 -1.52,1.79 -2.65,3.19 -2.29,2.76 -5.5,6.72 -9.25,11.48 -1.9,2.38 -3.9,4.94 -6,7.72 -2.1,2.78 -4.28,5.71 -6.51,8.75 -2.2,3.03 -4.47,6.18 -6.71,9.38 -2.25,3.23 -4.51,6.55 -6.72,9.84 -2.2,3.32 -4.36,6.62 -6.44,9.87 -0.93,1.42 -1.84,2.86 -2.7,4.29 -7.54,-0.35 -15.08,-0.54 -22.66,-0.54 -5.05,0 -10.07,0.08 -15.08,0.25l0 228.32 -61.45 0 0 -292.84 -0.1 0.02c-1.92,0.29 -4.24,0.56 -6.92,1.01 -2.66,0.43 -5.67,0.93 -8.94,1.46 -13.1,2.27 -30.49,5.85 -47.61,10.47 -17.13,4.53 -33.98,10.09 -46.47,14.66 -3.11,1.18 -5.95,2.27 -8.48,3.22 -1.26,0.49 -2.44,0.94 -3.53,1.36 -1.09,0.43 -2.08,0.84 -2.98,1.21 -3.59,1.46 -5.63,2.31 -5.63,2.31 0,0 -0.37,2 -0.99,5.5 -0.61,3.52 -1.42,8.59 -2.28,14.58 -0.46,3.01 -0.91,6.25 -1.36,9.69 -0.43,3.44 -0.85,7.06 -1.26,10.81 -0.41,3.75 -0.78,7.6 -1.13,11.49 -0.35,3.92 -0.64,7.91 -0.91,11.89 -0.25,3.95 -0.47,7.91 -0.66,11.78 -0.06,1.69 -0.12,3.38 -0.18,5.03 -13.45,6.94 -26.53,14.5 -39.22,22.68 -4.84,-2.56 -9.87,-5.11 -15,-7.66 -7.15,-3.53 -14.36,-6.82 -21.26,-9.87 -6.92,-3.07 -13.39,-5.71 -19.05,-7.97 -5.69,-2.29 -10.45,-4.06 -13.78,-5.28 -3.34,-1.23 -5.28,-1.91 -5.28,-1.91 0,0 -1.75,1.36 -4.82,3.71 -1.5,1.21 -3.33,2.69 -5.43,4.38 -2.11,1.69 -4.5,3.57 -7.01,5.73 -2.53,2.16 -5.29,4.45 -8.18,6.94 -2.84,2.53 -5.85,5.19 -8.94,7.95 -3.04,2.82 -6.18,5.75 -9.37,8.72 -3.11,3.04 -6.28,6.13 -9.45,9.22 -3.09,3.18 -6.18,6.35 -9.23,9.46 -2.97,3.19 -5.89,6.32 -8.72,9.37 -2.76,3.09 -5.41,6.1 -7.95,8.94 -2.49,2.89 -4.78,5.65 -6.94,8.18 -2.16,2.51 -4.04,4.9 -5.73,7 -1.68,2.1 -3.17,3.94 -4.38,5.44 -2.35,3.07 -3.71,4.82 -3.71,4.82 0,0 0.68,1.94 1.92,5.28 1.21,3.33 2.98,8.09 5.27,13.78 2.26,5.64 4.9,12.13 7.97,19.05 3.05,6.9 6.34,14.11 9.87,21.26 2.55,5.13 5.11,10.15 7.66,14.99 -8.18,12.69 -15.74,25.77 -22.68,39.23 -1.65,0.06 -3.34,0.12 -5.03,0.18 -3.87,0.19 -7.82,0.41 -11.78,0.66 -3.97,0.27 -7.97,0.56 -11.88,0.91 -3.9,0.35 -7.75,0.72 -11.5,1.13 -3.75,0.41 -7.37,0.82 -10.81,1.26 -3.44,0.45 -6.68,0.9 -9.68,1.36 -6,0.86 -11.07,1.66 -14.59,2.28 -3.5,0.62 -5.5,0.99 -5.5,0.99 0,0 -0.84,2.04 -2.31,5.62 -0.37,0.91 -0.78,1.9 -1.21,2.99 -0.41,1.09 -0.87,2.27 -1.36,3.52 -0.95,2.54 -2.04,5.38 -3.21,8.49 -4.58,12.48 -10.14,29.33 -14.67,46.47 -4.61,17.12 -8.2,34.51 -10.46,47.61 -0.54,3.27 -1.03,6.28 -1.47,8.94 -0.45,2.67 -0.72,5 -1.01,6.92 -0.53,3.83 -0.84,6.03 -0.84,6.03 0,0 0.39,0.33 1.11,0.95 0.72,0.62 1.79,1.52 3.19,2.66 2.76,2.28 6.72,5.5 11.48,9.27 2.39,1.87 4.94,3.87 7.72,5.97 2.78,2.1 5.71,4.29 8.76,6.51 3.02,2.2 6.18,4.47 9.37,6.72 3.23,2.26 6.55,4.51 9.85,6.71 3.31,2.21 6.61,4.37 9.86,6.45 1.42,0.93 2.87,1.83 4.29,2.7 -0.35,7.54 -0.54,15.08 -0.54,22.66 0,7.58 0.19,15.12 0.54,22.65 -1.42,0.87 -2.87,1.78 -4.29,2.7 -3.25,2.08 -6.55,4.25 -9.86,6.45 -3.3,2.21 -6.62,4.47 -9.85,6.72 -3.19,2.24 -6.35,4.51 -9.37,6.71 -3.05,2.23 -5.98,4.41 -8.76,6.51 -2.78,2.1 -5.33,4.1 -7.72,6 -4.76,3.74 -8.72,6.96 -11.48,9.24 -1.4,1.14 -2.47,2.06 -3.19,2.66 -0.72,0.62 -1.11,0.95 -1.11,0.95 0,0 0.31,2.2 0.84,6.03 0.29,1.92 0.56,4.27 1.01,6.93 0.44,2.65 0.93,5.66 1.47,8.94 2.26,13.1 5.85,30.48 10.46,47.6 4.53,17.14 10.09,33.99 14.67,46.47 1.17,3.11 2.26,5.96 3.21,8.49 0.49,1.26 0.95,2.43 1.36,3.52 0.43,1.09 0.84,2.08 1.21,2.99 1.47,3.58 2.31,5.62 2.31,5.62 0,0 2,0.37 5.5,0.99 3.52,0.62 8.59,1.42 14.59,2.29 3,0.45 6.24,0.9 9.68,1.36 3.44,0.43 7.06,0.84 10.81,1.25 3.75,0.41 7.6,0.79 11.5,1.14 3.91,0.35 7.91,0.63 11.88,0.9 3.96,0.25 7.91,0.48 11.78,0.66 1.69,0.06 3.38,0.13 5.03,0.19 6.94,13.45 14.5,26.53 22.68,39.22 -2.55,4.84 -5.11,9.86 -7.66,14.99 -3.53,7.15 -6.82,14.36 -9.87,21.28 -3.07,6.9 -5.71,13.39 -7.97,19.04 -2.29,5.68 -4.06,10.44 -5.27,13.78 -1.24,3.33 -1.92,5.27 -1.92,5.27 0,0 1.36,1.75 3.71,4.82 1.21,1.5 2.7,3.34 4.38,5.44 1.69,2.1 3.57,4.49 5.73,7 2.16,2.54 4.45,5.3 6.94,8.18 2.54,2.84 5.19,5.85 7.95,8.94 2.83,3.05 5.75,6.18 8.72,9.37 3.05,3.11 6.14,6.29 9.23,9.46 3.17,3.09 6.34,6.18 9.45,9.23 3.19,2.96 6.33,5.89 9.37,8.71 3.09,2.76 6.1,5.42 8.94,7.95 2.89,2.49 5.65,4.78 8.18,6.94 2.51,2.17 4.9,4.04 7.01,5.73 2.1,1.71 3.93,3.17 5.43,4.39 3.07,2.35 4.82,3.7 4.82,3.7 0,0 1.94,-0.68 5.28,-1.91 3.33,-1.22 8.09,-2.99 13.78,-5.27 5.66,-2.27 12.13,-4.91 19.05,-7.98 6.9,-3.04 14.11,-6.34 21.26,-9.86 5.13,-2.56 10.16,-5.11 15,-7.67 12.69,8.18 25.77,15.74 39.22,22.68 0.06,1.65 0.12,3.34 0.18,5.03 0.19,3.87 0.41,7.83 0.66,11.78 0.27,3.98 0.56,7.97 0.91,11.89 0.35,3.89 0.72,7.74 1.13,11.49 0.41,3.75 0.83,7.38 1.26,10.82 0.45,3.44 0.9,6.67 1.36,9.68 0.86,5.99 1.67,11.06 2.28,14.58 0.62,3.5 0.99,5.5 0.99,5.5 0,0 2.04,0.85 5.63,2.31 0.9,0.37 1.89,0.78 2.98,1.21 1.09,0.42 2.27,0.87 3.53,1.36 2.53,0.95 5.37,2.04 8.48,3.22 12.49,4.57 29.34,10.13 46.47,14.66 17.12,4.62 34.51,8.2 47.61,10.47 3.27,0.53 6.28,1.03 8.94,1.46 2.68,0.45 5,0.72 6.92,1.01 3.83,0.54 6.04,0.85 6.04,0.85 0,0 0.32,-0.4 0.94,-1.12 0.62,-0.72 1.53,-1.79 2.66,-3.19 2.29,-2.76 5.5,-6.72 9.27,-11.47 1.87,-2.39 3.87,-4.95 5.97,-7.73 2.1,-2.78 4.29,-5.7 6.51,-8.75 2.21,-3.03 4.47,-6.18 6.72,-9.38 2.26,-3.23 4.51,-6.55 6.71,-9.84 2.21,-3.32 4.37,-6.61 6.47,-9.87 0.91,-1.42 1.81,-2.86 2.68,-4.28 7.54,0.35 15.08,0.53 22.66,0.53 7.58,0 15.12,-0.18 22.66,-0.53 0.86,1.42 1.77,2.86 2.7,4.28 2.08,3.26 4.24,6.55 6.44,9.87 2.21,3.29 4.47,6.61 6.72,9.84 2.24,3.2 4.51,6.35 6.71,9.38 2.23,3.05 4.41,5.97 6.51,8.75 2.1,2.78 4.1,5.34 6,7.73 3.75,4.75 6.96,8.71 9.25,11.47 1.13,1.4 2.06,2.47 2.65,3.19 0.62,0.72 0.95,1.12 0.95,1.12 0,0 2.21,-0.31 6.04,-0.85 1.91,-0.29 4.26,-0.56 6.92,-1.01 2.66,-0.43 5.66,-0.93 8.94,-1.46 13.1,-2.27 30.48,-5.85 47.6,-10.47 17.14,-4.53 33.99,-10.09 46.47,-14.66 3.11,-1.18 5.96,-2.27 8.49,-3.22 1.26,-0.49 2.43,-0.94 3.52,-1.36 1.1,-0.43 2.08,-0.84 2.99,-1.21 3.58,-1.46 5.62,-2.31 5.62,-2.31 0,0 0.37,-2 0.99,-5.5 0.62,-3.52 1.42,-8.59 2.29,-14.58 0.45,-3.01 0.91,-6.24 1.36,-9.68 0.43,-3.44 0.84,-7.07 1.26,-10.82 0.41,-3.75 0.78,-7.6 1.13,-11.49 0.35,-3.92 0.64,-7.91 0.9,-11.89 0.25,-3.95 0.48,-7.91 0.66,-11.78 0.07,-1.69 0.13,-3.38 0.19,-5.03 13.45,-6.94 26.53,-14.5 39.22,-22.68 4.84,2.56 9.87,5.11 15,7.67 7.14,3.52 14.35,6.82 21.27,9.86 6.91,3.07 13.39,5.71 19.04,7.98 5.68,2.28 10.44,4.05 13.78,5.27 3.34,1.23 5.27,1.91 5.27,1.91 0,0 1.75,-1.35 4.82,-3.7 1.51,-1.22 3.34,-2.68 5.44,-4.39 2.1,-1.69 4.49,-3.56 7,-5.73 2.54,-2.16 5.3,-4.45 8.18,-6.94 2.84,-2.53 5.85,-5.19 8.94,-7.95 3.05,-2.82 6.18,-5.75 9.37,-8.71 3.12,-3.05 6.29,-6.14 9.46,-9.23 3.09,-3.17 6.18,-6.35 9.23,-9.46 2.96,-3.19 5.89,-6.32 8.71,-9.37 2.76,-3.09 5.42,-6.1 7.95,-8.94 2.5,-2.88 4.78,-5.64 6.94,-8.18 2.17,-2.51 4.04,-4.9 5.73,-7 1.71,-2.1 3.17,-3.94 4.39,-5.44 2.35,-3.07 3.71,-4.82 3.71,-4.82 0,0 -0.68,-1.94 -1.92,-5.27 -1.21,-3.34 -2.99,-8.1 -5.27,-13.78 -2.27,-5.65 -4.9,-12.14 -7.97,-19.04 -3.05,-6.92 -6.35,-14.13 -9.87,-21.28 -2.56,-5.13 -5.11,-10.15 -7.66,-14.99 8.17,-12.69 15.73,-25.77 22.68,-39.22 1.64,-0.06 3.33,-0.13 5.02,-0.19 3.87,-0.18 7.83,-0.41 11.78,-0.66 3.98,-0.27 7.98,-0.55 11.89,-0.9 3.89,-0.35 7.75,-0.73 11.49,-1.14 3.75,-0.41 7.38,-0.82 10.82,-1.25 3.44,-0.46 6.67,-0.91 9.68,-1.36 5.99,-0.87 11.06,-1.67 14.58,-2.29 3.51,-0.62 5.5,-0.99 5.5,-0.99 0,0 0.85,-2.04 2.31,-5.62 0.37,-0.91 0.78,-1.9 1.22,-2.99 0.41,-1.09 0.86,-2.26 1.36,-3.52 0.94,-2.53 2.04,-5.38 3.21,-8.49 4.57,-12.48 10.13,-29.33 14.67,-46.47 4.61,-17.12 8.2,-34.5 10.46,-47.6 0.54,-3.28 1.03,-6.29 1.46,-8.94 0.46,-2.66 0.72,-5.01 1.01,-6.93 0.54,-3.83 0.85,-6.03 0.85,-6.03 0,0 -0.39,-0.33 -1.11,-0.95 -0.73,-0.6 -1.8,-1.52 -3.2,-2.66l-6.8 -5.54 -268.03 0 0 -61.44 214.04 0c0,-7.58 -0.18,-15.12 -0.53,-22.66 1.42,-0.87 2.86,-1.77 4.28,-2.7 3.26,-2.08 6.55,-4.24 9.87,-6.45z"/>
  <circle class="fil0 str0" cx="11014.75" cy="12109.38" r="326.25"/>
  <circle class="fil1" cx="11014.75" cy="12109.38" r="108.12"/>
  <rect class="fil1" x="10981.75" y="11322.37" width="30.16" height="802.09"/>
  <rect class="fil1" transform="matrix(5.45558E-14 -2.05991 2.05991 5.45558E-14 11002.3 12124.5)" width="14.64" height="389.38"/>
  <path class="fil3 str1" d="M11056.42 11408.96c30.38,-40.97 67.7,-76.3 110.26,-104.39 201.49,-133.04 472.69,-77.54 605.73,123.96 133.04,201.5 77.54,472.7 -123.96,605.74"/>
  <path class="fil3 str2" d="M10848.9 11290.91c46.38,-62.54 103.35,-116.46 168.3,-159.35 307.57,-203.07 721.53,-118.35 924.6,189.21 203.07,307.57 118.35,721.53 -189.21,924.6"/>
 </g>
</svg>
