<svg xmlns="http://www.w3.org/2000/svg" xmlns:xlink="http://www.w3.org/1999/xlink" xmlns:xodm="http://www.corel.com/coreldraw/odm/2003" xml:space="preserve" width="21000" height="29700" version="1.1" style="shape-rendering: geometricprecision; text-rendering: geometricprecision; fill-rule: evenodd; clip-rule: evenodd;"><rect id="backgroundrect" width="100%" height="100%" x="0" y="0" fill="none" stroke="none"/>
 <defs>
  <style type="text/css">
   <![CDATA[
    .str0 {stroke:#FEFEFE;stroke-width:20;stroke-miterlimit:22.9256}
    .str1 {stroke:#265D94;stroke-width:20;stroke-miterlimit:22.9256}
    .str2 {stroke:#265D94;stroke-width:20;stroke-miterlimit:22.9256;stroke-dasharray:40.000000 20.000000}
    .fil3 {fill:none}
    .fil0 {fill:#FEFEFE}
    .fil1 {fill:#265D94}
    .fil2 {fill:#265D94;fill-rule:nonzero}
   ]]>
  </style>
 </defs>
 
<g class="currentLayer" style=""><title>Layer 1</title><g id="Слой_x0020_1" class="selected">
  <metadata id="CorelCorpID_0Corel-Layer" transform="translate(230,-890) translate(20.304567337036133,619.289306640625) translate(-225.38070678710938,883.2487182617188) translate(-353.29949951171875,454.82232666015625) "/>
  <circle class="fil0 str0" cx="10718.174165725708" cy="12691.5107421875" r="2833.31005859375" id="svg_1"/>
  <path class="fil1" d="M9751.734361038209,11740.6403515625 l2.06,168.39 l2355.4,0 l0,1979.59 l-2769.43,0 c-29.8,-1.96 -41.28,-4.93 -71.38,-15.3 c-88.79,-30.6 -117.74,-129.78 -118.52,-204.52 c-1.21,-114.53 55.33,-187.25 169.16,-206.2 c19.75,-3.29 36.24,-3.16 56.06,-3.16 l226.75,0 l0,-2041.2 l-316.24,0 c-188.74,10.1 -310.49,166.39 -315.56,340.88 c-18.83,647.75 -0.6900000000000007,1323.79 -0.6900000000000007,1974.69 c-7.86,158.64 119.49,303 309.97,303 c991.11,0 1982.23,0 2973.34,0 l0,-2284.29 l-2500.92,-11.88 z" id="svg_2"/>
  <path class="fil2" d="M11171.604361038208,13144.9303515625 c3.3,-2.2 6.61,-4.45 9.85,-6.71 c3.19,-2.25 6.34,-4.52 9.37,-6.72 c3.05,-2.22 5.97,-4.41 8.75,-6.51 c2.7800000000000002,-2.1 5.34,-4.1 7.73,-5.97 c4.76,-3.77 8.71,-6.99 11.47,-9.27 c1.4,-1.1400000000000001 2.47,-2.04 3.2,-2.66 c0.7200000000000004,-0.6200000000000004 1.11,-0.9500000000000004 1.11,-0.9500000000000004 c0,0 -0.3100000000000002,-2.2 -0.8500000000000004,-6.03 c-0.2900000000000002,-1.92 -0.55,-4.25 -1.01,-6.92 c-0.4300000000000002,-2.66 -0.92,-5.67 -1.46,-8.94 c-2.26,-13.1 -5.85,-30.49 -10.46,-47.61 c-4.54,-17.14 -10.1,-33.99 -14.67,-46.47 c-1.17,-3.11 -2.27,-5.95 -3.21,-8.49 c-0.5,-1.25 -0.9500000000000004,-2.43 -1.36,-3.52 c-0.4400000000000002,-1.09 -0.8500000000000004,-2.08 -1.22,-2.99 c-1.46,-3.58 -2.31,-5.62 -2.31,-5.62 c0,0 -1.99,-0.3700000000000002 -5.5,-0.99 c-3.52,-0.6200000000000004 -8.59,-1.42 -14.58,-2.2800000000000002 c-3.01,-0.46 -6.24,-0.91 -9.68,-1.36 c-3.44,-0.4400000000000002 -7.07,-0.8500000000000004 -10.82,-1.26 c-3.74,-0.4100000000000002 -7.6,-0.78 -11.49,-1.13 c-3.91,-0.3500000000000002 -7.91,-0.6400000000000005 -11.89,-0.91 c-3.95,-0.25 -7.91,-0.4700000000000002 -11.78,-0.6600000000000007 c-1.6900000000000008,-0.06000000000000004 -3.38,-0.12000000000000002 -5.02,-0.1800000000000001 c-6.95,-13.46 -14.51,-26.54 -22.68,-39.23 c2.55,-4.84 5.1,-9.86 7.66,-14.99 c3.52,-7.15 6.82,-14.36 9.870000000000001,-21.26 c3.07,-6.92 5.7,-13.41 7.97,-19.05 c2.2800000000000002,-5.69 4.06,-10.45 5.27,-13.78 c1.24,-3.34 1.92,-5.28 1.92,-5.28 c0,0 -1.36,-1.75 -3.71,-4.82 c-1.22,-1.5 -2.68,-3.34 -4.39,-5.44 c-1.6900000000000008,-2.1 -3.56,-4.49 -5.73,-7 c-2.16,-2.5300000000000002 -4.44,-5.29 -6.94,-8.18 c-2.5300000000000002,-2.84 -5.19,-5.85 -7.95,-8.94 c-2.8200000000000003,-3.05 -5.75,-6.18 -8.71,-9.37 c-3.05,-3.11 -6.14,-6.28 -9.23,-9.46 c-3.17,-3.09 -6.34,-6.18 -9.46,-9.22 c-3.19,-2.9699999999999998 -6.32,-5.9 -9.37,-8.72 c-3.09,-2.7600000000000002 -6.1,-5.42 -8.94,-7.95 c-2.88,-2.49 -5.6400000000000015,-4.78 -8.18,-6.94 c-2.51,-2.16 -4.9,-4.04 -7,-5.73 c-2.1,-1.6900000000000008 -3.93,-3.17 -5.44,-4.38 c-3.07,-2.35 -4.82,-3.71 -4.82,-3.71 c0,0 -1.9300000000000002,0.6800000000000007 -5.27,1.9100000000000001 c-3.34,1.22 -8.1,2.99 -13.78,5.28 c-5.65,2.26 -12.13,4.9 -19.04,7.97 c-6.92,3.05 -14.13,6.34 -21.27,9.870000000000001 c-5.13,2.55 -10.16,5.1 -15,7.66 c-12.69,-8.18 -25.77,-15.74 -39.22,-22.68 c-0.06000000000000004,-1.6500000000000008 -0.12000000000000002,-3.34 -0.1900000000000001,-5.03 c-0.1800000000000001,-3.87 -0.4100000000000002,-7.83 -0.6600000000000007,-11.78 c-0.26,-3.98 -0.55,-7.97 -0.9,-11.89 c-0.3500000000000002,-3.89 -0.7200000000000004,-7.74 -1.13,-11.49 c-0.4200000000000002,-3.75 -0.8300000000000004,-7.37 -1.26,-10.81 c-0.45,-3.44 -0.91,-6.68 -1.36,-9.69 c-0.8700000000000004,-5.99 -1.6700000000000008,-11.06 -2.29,-14.58 c-0.6200000000000004,-3.5 -0.99,-5.5 -0.99,-5.5 c0,0 -2.04,-0.8500000000000004 -5.62,-2.31 c-0.91,-0.3700000000000002 -1.8900000000000001,-0.78 -2.99,-1.21 c-1.09,-0.4200000000000002 -2.26,-0.8700000000000004 -3.52,-1.36 c-2.5300000000000002,-0.9500000000000004 -5.38,-2.04 -8.49,-3.22 c-12.48,-4.57 -29.33,-10.13 -46.47,-14.66 c-17.12,-4.62 -34.5,-8.2 -47.6,-10.47 c-3.2800000000000002,-0.53 -6.28,-1.03 -8.94,-1.46 c-2.66,-0.45 -5.01,-0.7200000000000004 -6.92,-1.01 c-3.83,-0.53 -6.04,-0.8400000000000004 -6.04,-0.8400000000000004 c0,0 -0.3300000000000003,0.3900000000000003 -0.9500000000000004,1.11 c-0.5900000000000004,0.7200000000000004 -1.52,1.79 -2.6500000000000004,3.19 c-2.29,2.7600000000000002 -5.5,6.72 -9.25,11.48 c-1.9,2.38 -3.9,4.94 -6,7.72 c-2.1,2.7800000000000002 -4.28,5.71 -6.51,8.75 c-2.2,3.03 -4.47,6.18 -6.71,9.38 c-2.25,3.23 -4.51,6.55 -6.72,9.84 c-2.2,3.3200000000000003 -4.36,6.62 -6.44,9.870000000000001 c-0.93,1.42 -1.84,2.8600000000000003 -2.7,4.29 c-7.54,-0.3500000000000002 -15.08,-0.54 -22.66,-0.54 c-5.05,0 -10.07,0.08000000000000006 -15.08,0.25 l0,228.32 l-61.45,0 l0,-292.84 l-0.1,0.020000000000000014 c-1.92,0.2900000000000002 -4.24,0.56 -6.92,1.01 c-2.66,0.4300000000000002 -5.67,0.93 -8.94,1.46 c-13.1,2.27 -30.49,5.85 -47.61,10.47 c-17.13,4.53 -33.98,10.09 -46.47,14.66 c-3.11,1.18 -5.95,2.27 -8.48,3.22 c-1.26,0.4900000000000002 -2.44,0.9400000000000004 -3.5300000000000002,1.36 c-1.09,0.4300000000000002 -2.08,0.8400000000000004 -2.98,1.21 c-3.59,1.46 -5.63,2.31 -5.63,2.31 c0,0 -0.3700000000000002,2 -0.99,5.5 c-0.6100000000000004,3.52 -1.42,8.59 -2.2800000000000002,14.58 c-0.46,3.01 -0.91,6.25 -1.36,9.69 c-0.4300000000000002,3.44 -0.8500000000000004,7.06 -1.26,10.81 c-0.4100000000000002,3.75 -0.78,7.6 -1.13,11.49 c-0.3500000000000002,3.92 -0.6400000000000005,7.91 -0.91,11.89 c-0.25,3.95 -0.4700000000000002,7.91 -0.6600000000000007,11.78 c-0.06000000000000004,1.6900000000000008 -0.12000000000000002,3.38 -0.1800000000000001,5.03 c-13.45,6.94 -26.53,14.5 -39.22,22.68 c-4.84,-2.56 -9.870000000000001,-5.11 -15,-7.66 c-7.15,-3.5300000000000002 -14.36,-6.82 -21.26,-9.870000000000001 c-6.92,-3.07 -13.39,-5.71 -19.05,-7.97 c-5.69,-2.29 -10.45,-4.06 -13.78,-5.28 c-3.34,-1.23 -5.28,-1.9100000000000001 -5.28,-1.9100000000000001 c0,0 -1.75,1.36 -4.82,3.71 c-1.5,1.21 -3.33,2.6900000000000004 -5.43,4.38 c-2.11,1.6900000000000008 -4.5,3.5700000000000003 -7.01,5.73 c-2.5300000000000002,2.16 -5.29,4.45 -8.18,6.94 c-2.84,2.5300000000000002 -5.85,5.19 -8.94,7.95 c-3.04,2.8200000000000003 -6.18,5.75 -9.37,8.72 c-3.11,3.04 -6.28,6.13 -9.45,9.22 c-3.09,3.18 -6.18,6.35 -9.23,9.46 c-2.9699999999999998,3.19 -5.8900000000000015,6.32 -8.72,9.37 c-2.7600000000000002,3.09 -5.41,6.1 -7.95,8.94 c-2.49,2.89 -4.78,5.65 -6.94,8.18 c-2.16,2.51 -4.04,4.9 -5.73,7 c-1.6800000000000006,2.1 -3.17,3.94 -4.38,5.44 c-2.35,3.07 -3.71,4.82 -3.71,4.82 c0,0 0.6800000000000007,1.94 1.92,5.28 c1.21,3.33 2.98,8.09 5.27,13.78 c2.26,5.6400000000000015 4.9,12.13 7.97,19.05 c3.05,6.9 6.34,14.11 9.870000000000001,21.26 c2.55,5.13 5.11,10.15 7.66,14.99 c-8.18,12.69 -15.74,25.77 -22.68,39.23 c-1.6500000000000008,0.06000000000000004 -3.34,0.12000000000000002 -5.03,0.1800000000000001 c-3.87,0.1900000000000001 -7.82,0.4100000000000002 -11.78,0.6600000000000007 c-3.9699999999999998,0.27 -7.97,0.56 -11.88,0.91 c-3.9,0.3500000000000002 -7.75,0.7200000000000004 -11.5,1.13 c-3.75,0.4100000000000002 -7.37,0.8200000000000004 -10.81,1.26 c-3.44,0.45 -6.68,0.9 -9.68,1.36 c-6,0.8600000000000004 -11.07,1.6600000000000001 -14.59,2.2800000000000002 c-3.5,0.6200000000000004 -5.5,0.99 -5.5,0.99 c0,0 -0.8400000000000004,2.04 -2.31,5.62 c-0.3700000000000002,0.91 -0.78,1.9 -1.21,2.99 c-0.4100000000000002,1.09 -0.8700000000000004,2.27 -1.36,3.52 c-0.9500000000000004,2.54 -2.04,5.38 -3.21,8.49 c-4.58,12.48 -10.14,29.33 -14.67,46.47 c-4.61,17.12 -8.2,34.51 -10.46,47.61 c-0.54,3.27 -1.03,6.28 -1.47,8.94 c-0.45,2.67 -0.7200000000000004,5 -1.01,6.92 c-0.53,3.83 -0.8400000000000004,6.03 -0.8400000000000004,6.03 c0,0 0.3900000000000003,0.3300000000000003 1.11,0.9500000000000004 c0.7200000000000004,0.6200000000000004 1.79,1.52 3.19,2.66 c2.7600000000000002,2.2800000000000002 6.72,5.5 11.48,9.27 c2.39,1.87 4.94,3.87 7.72,5.97 c2.7800000000000002,2.1 5.71,4.29 8.76,6.51 c3.02,2.2 6.18,4.47 9.37,6.72 c3.23,2.26 6.55,4.51 9.85,6.71 c3.31,2.21 6.61,4.37 9.86,6.45 c1.42,0.93 2.87,1.83 4.29,2.7 c-0.3500000000000002,7.54 -0.54,15.08 -0.54,22.66 c0,7.58 0.1900000000000001,15.12 0.54,22.65 c-1.42,0.8700000000000004 -2.87,1.78 -4.29,2.7 c-3.25,2.08 -6.55,4.25 -9.86,6.45 c-3.3,2.21 -6.62,4.47 -9.85,6.72 c-3.19,2.24 -6.35,4.51 -9.37,6.71 c-3.05,2.23 -5.98,4.41 -8.76,6.51 c-2.7800000000000002,2.1 -5.33,4.1 -7.72,6 c-4.76,3.74 -8.72,6.96 -11.48,9.24 c-1.4,1.1400000000000001 -2.47,2.06 -3.19,2.66 c-0.7200000000000004,0.6200000000000004 -1.11,0.9500000000000004 -1.11,0.9500000000000004 c0,0 0.3100000000000002,2.2 0.8400000000000004,6.03 c0.2900000000000002,1.92 0.56,4.27 1.01,6.93 c0.4400000000000002,2.6500000000000004 0.93,5.66 1.47,8.94 c2.26,13.1 5.85,30.48 10.46,47.6 c4.53,17.14 10.09,33.99 14.67,46.47 c1.17,3.11 2.26,5.96 3.21,8.49 c0.4900000000000002,1.26 0.9500000000000004,2.43 1.36,3.52 c0.4300000000000002,1.09 0.8400000000000004,2.08 1.21,2.99 c1.47,3.58 2.31,5.62 2.31,5.62 c0,0 2,0.3700000000000002 5.5,0.99 c3.52,0.6200000000000004 8.59,1.42 14.59,2.29 c3,0.45 6.24,0.9 9.68,1.36 c3.44,0.4300000000000002 7.06,0.8400000000000004 10.81,1.25 c3.75,0.4100000000000002 7.6,0.79 11.5,1.1400000000000001 c3.91,0.3500000000000002 7.91,0.6300000000000004 11.88,0.9 c3.96,0.25 7.91,0.4800000000000002 11.78,0.6600000000000007 c1.6900000000000008,0.06000000000000004 3.38,0.13 5.03,0.1900000000000001 c6.94,13.45 14.5,26.53 22.68,39.22 c-2.55,4.84 -5.11,9.86 -7.66,14.99 c-3.5300000000000002,7.15 -6.82,14.36 -9.870000000000001,21.28 c-3.07,6.9 -5.71,13.39 -7.97,19.04 c-2.29,5.68 -4.06,10.44 -5.27,13.78 c-1.24,3.33 -1.92,5.27 -1.92,5.27 c0,0 1.36,1.75 3.71,4.82 c1.21,1.5 2.7,3.34 4.38,5.44 c1.6900000000000008,2.1 3.5700000000000003,4.49 5.73,7 c2.16,2.54 4.45,5.3 6.94,8.18 c2.54,2.84 5.19,5.85 7.95,8.94 c2.83,3.05 5.75,6.18 8.72,9.37 c3.05,3.11 6.14,6.29 9.23,9.46 c3.17,3.09 6.34,6.18 9.45,9.23 c3.19,2.96 6.33,5.8900000000000015 9.37,8.71 c3.09,2.7600000000000002 6.1,5.42 8.94,7.95 c2.89,2.49 5.65,4.78 8.18,6.94 c2.51,2.17 4.9,4.04 7.01,5.73 c2.1,1.71 3.93,3.17 5.43,4.39 c3.07,2.35 4.82,3.7 4.82,3.7 c0,0 1.94,-0.6800000000000007 5.28,-1.9100000000000001 c3.33,-1.22 8.09,-2.99 13.78,-5.27 c5.66,-2.27 12.13,-4.91 19.05,-7.98 c6.9,-3.04 14.11,-6.34 21.26,-9.86 c5.13,-2.56 10.16,-5.11 15,-7.67 c12.69,8.18 25.77,15.74 39.22,22.68 c0.06000000000000004,1.6500000000000008 0.12000000000000002,3.34 0.1800000000000001,5.03 c0.1900000000000001,3.87 0.4100000000000002,7.83 0.6600000000000007,11.78 c0.27,3.98 0.56,7.97 0.91,11.89 c0.3500000000000002,3.89 0.7200000000000004,7.74 1.13,11.49 c0.4100000000000002,3.75 0.8300000000000004,7.38 1.26,10.82 c0.45,3.44 0.9,6.67 1.36,9.68 c0.8600000000000004,5.99 1.6700000000000008,11.06 2.2800000000000002,14.58 c0.6200000000000004,3.5 0.99,5.5 0.99,5.5 c0,0 2.04,0.8500000000000004 5.63,2.31 c0.9,0.3700000000000002 1.8900000000000001,0.78 2.98,1.21 c1.09,0.4200000000000002 2.27,0.8700000000000004 3.5300000000000002,1.36 c2.5300000000000002,0.9500000000000004 5.37,2.04 8.48,3.22 c12.49,4.57 29.34,10.13 46.47,14.66 c17.12,4.62 34.51,8.2 47.61,10.47 c3.27,0.53 6.28,1.03 8.94,1.46 c2.68,0.45 5,0.7200000000000004 6.92,1.01 c3.83,0.54 6.04,0.8500000000000004 6.04,0.8500000000000004 c0,0 0.3200000000000003,-0.4 0.9400000000000004,-1.12 c0.6200000000000004,-0.7200000000000004 1.53,-1.79 2.66,-3.19 c2.29,-2.7600000000000002 5.5,-6.72 9.27,-11.47 c1.87,-2.39 3.87,-4.95 5.97,-7.73 c2.1,-2.7800000000000002 4.29,-5.7 6.51,-8.75 c2.21,-3.03 4.47,-6.18 6.72,-9.38 c2.26,-3.23 4.51,-6.55 6.71,-9.84 c2.21,-3.3200000000000003 4.37,-6.61 6.47,-9.870000000000001 c0.91,-1.42 1.81,-2.8600000000000003 2.68,-4.28 c7.54,0.3500000000000002 15.08,0.53 22.66,0.53 c7.58,0 15.12,-0.1800000000000001 22.66,-0.53 c0.8600000000000004,1.42 1.77,2.8600000000000003 2.7,4.28 c2.08,3.26 4.24,6.55 6.44,9.870000000000001 c2.21,3.29 4.47,6.61 6.72,9.84 c2.24,3.2 4.51,6.35 6.71,9.38 c2.23,3.05 4.41,5.97 6.51,8.75 c2.1,2.7800000000000002 4.1,5.34 6,7.73 c3.75,4.75 6.96,8.71 9.25,11.47 c1.13,1.4 2.06,2.47 2.6500000000000004,3.19 c0.6200000000000004,0.7200000000000004 0.9500000000000004,1.12 0.9500000000000004,1.12 c0,0 2.21,-0.3100000000000002 6.04,-0.8500000000000004 c1.9100000000000001,-0.2900000000000002 4.26,-0.56 6.92,-1.01 c2.66,-0.4300000000000002 5.66,-0.93 8.94,-1.46 c13.1,-2.27 30.48,-5.85 47.6,-10.47 c17.14,-4.53 33.99,-10.09 46.47,-14.66 c3.11,-1.18 5.96,-2.27 8.49,-3.22 c1.26,-0.4900000000000002 2.43,-0.9400000000000004 3.52,-1.36 c1.1,-0.4300000000000002 2.08,-0.8400000000000004 2.99,-1.21 c3.58,-1.46 5.62,-2.31 5.62,-2.31 c0,0 0.3700000000000002,-2 0.99,-5.5 c0.6200000000000004,-3.52 1.42,-8.59 2.29,-14.58 c0.45,-3.01 0.91,-6.24 1.36,-9.68 c0.4300000000000002,-3.44 0.8400000000000004,-7.07 1.26,-10.82 c0.4100000000000002,-3.75 0.78,-7.6 1.13,-11.49 c0.3500000000000002,-3.92 0.6400000000000005,-7.91 0.9,-11.89 c0.25,-3.95 0.4800000000000002,-7.91 0.6600000000000007,-11.78 c0.07,-1.6900000000000008 0.13,-3.38 0.1900000000000001,-5.03 c13.45,-6.94 26.53,-14.5 39.22,-22.68 c4.84,2.56 9.870000000000001,5.11 15,7.67 c7.14,3.52 14.35,6.82 21.27,9.86 c6.91,3.07 13.39,5.71 19.04,7.98 c5.68,2.2800000000000002 10.44,4.05 13.78,5.27 c3.34,1.23 5.27,1.9100000000000001 5.27,1.9100000000000001 c0,0 1.75,-1.35 4.82,-3.7 c1.51,-1.22 3.34,-2.68 5.44,-4.39 c2.1,-1.6900000000000008 4.49,-3.56 7,-5.73 c2.54,-2.16 5.3,-4.45 8.18,-6.94 c2.84,-2.5300000000000002 5.85,-5.19 8.94,-7.95 c3.05,-2.8200000000000003 6.18,-5.75 9.37,-8.71 c3.12,-3.05 6.29,-6.14 9.46,-9.23 c3.09,-3.17 6.18,-6.35 9.23,-9.46 c2.96,-3.19 5.8900000000000015,-6.32 8.71,-9.37 c2.7600000000000002,-3.09 5.42,-6.1 7.95,-8.94 c2.5,-2.88 4.78,-5.6400000000000015 6.94,-8.18 c2.17,-2.51 4.04,-4.9 5.73,-7 c1.71,-2.1 3.17,-3.94 4.39,-5.44 c2.35,-3.07 3.71,-4.82 3.71,-4.82 c0,0 -0.6800000000000007,-1.94 -1.92,-5.27 c-1.21,-3.34 -2.99,-8.1 -5.27,-13.78 c-2.27,-5.65 -4.9,-12.14 -7.97,-19.04 c-3.05,-6.92 -6.35,-14.13 -9.870000000000001,-21.28 c-2.56,-5.13 -5.11,-10.15 -7.66,-14.99 c8.17,-12.69 15.73,-25.77 22.68,-39.22 c1.6400000000000001,-0.06000000000000004 3.33,-0.13 5.02,-0.1900000000000001 c3.87,-0.1800000000000001 7.83,-0.4100000000000002 11.78,-0.6600000000000007 c3.98,-0.27 7.98,-0.55 11.89,-0.9 c3.89,-0.3500000000000002 7.75,-0.7300000000000004 11.49,-1.1400000000000001 c3.75,-0.4100000000000002 7.38,-0.8200000000000004 10.82,-1.25 c3.44,-0.46 6.67,-0.91 9.68,-1.36 c5.99,-0.8700000000000004 11.06,-1.6700000000000008 14.58,-2.29 c3.51,-0.6200000000000004 5.5,-0.99 5.5,-0.99 c0,0 0.8500000000000004,-2.04 2.31,-5.62 c0.3700000000000002,-0.91 0.78,-1.9 1.22,-2.99 c0.4100000000000002,-1.09 0.8600000000000004,-2.26 1.36,-3.52 c0.9400000000000004,-2.5300000000000002 2.04,-5.38 3.21,-8.49 c4.57,-12.48 10.13,-29.33 14.67,-46.47 c4.61,-17.12 8.2,-34.5 10.46,-47.6 c0.54,-3.2800000000000002 1.03,-6.29 1.46,-8.94 c0.46,-2.66 0.7200000000000004,-5.01 1.01,-6.93 c0.54,-3.83 0.8500000000000004,-6.03 0.8500000000000004,-6.03 c0,0 -0.3900000000000003,-0.3300000000000003 -1.11,-0.9500000000000004 c-0.7300000000000004,-0.6000000000000004 -1.8,-1.52 -3.2,-2.66 l-6.8,-5.54 l-268.03,0 l0,-61.44 l214.04,0 c0,-7.58 -0.1800000000000001,-15.12 -0.53,-22.66 c1.42,-0.8700000000000004 2.8600000000000003,-1.77 4.28,-2.7 c3.26,-2.08 6.55,-4.24 9.870000000000001,-6.45 z" id="svg_3"/>
  <circle class="fil0 str0" cx="10686.374361038208" cy="13176.740234375" r="326.25" id="svg_4"/>
  <circle class="fil1" cx="10686.374361038208" cy="13176.740234375" r="108.12000274658203" id="svg_5"/>
  <rect class="fil1" x="10653.374361038208" y="12389.73046875" width="30.15999984741211" height="802.0900268554688" id="svg_6"/>
  <rect class="fil1" transform="matrix(5.45558e-14,-2.05991,2.05991,5.45558e-14,11002.3,12124.5) " width="14.640000343322747" height="389.3800048828123" id="svg_7" y="-159.41261461023612" x="-518.1587309943159"/>
  <path class="fil3 str1" d="M10728.044361038208,12476.3203515625 c30.38,-40.97 67.7,-76.3 110.26,-104.39 c201.49,-133.04 472.69,-77.54 605.73,123.96 c133.04,201.5 77.54,472.7 -123.96,605.74 " id="svg_8"/>
  <path class="fil3 str2" d="M10520.524361038208,12358.2703515625 c46.38,-62.54 103.35,-116.46 168.3,-159.35 c307.57,-203.07 721.53,-118.35 924.6,189.21 c203.07,307.57 118.35,721.53 -189.21,924.6 " id="svg_9"/>
 </g></g></svg>