<?xml version="1.0" encoding="UTF-8"?>
<!DOCTYPE svg PUBLIC "-//W3C//DTD SVG 1.1//EN" "http://www.w3.org/Graphics/SVG/1.1/DTD/svg11.dtd">
<!-- Creator: CorelDRAW -->
<svg xmlns="http://www.w3.org/2000/svg" xml:space="preserve" width="55.909mm" height="56.3458mm" version="1.1" style="shape-rendering:geometricPrecision; text-rendering:geometricPrecision; image-rendering:optimizeQuality; fill-rule:evenodd; clip-rule:evenodd"
viewBox="0 0 5785.78 5830.99"
 xmlns:xlink="http://www.w3.org/1999/xlink"
 xmlns:xodm="http://www.corel.com/coreldraw/odm/2003">
 <defs>
  <style type="text/css">
   <![CDATA[
    .str0 {stroke:#FEFEFE;stroke-width:20.7;stroke-miterlimit:22.9256}
    .fil0 {fill:#FEFEFE}
    .fil1 {fill:#255D94}
   ]]>
  </style>
 </defs>
 <g id="Слой_x0020_1">
  <metadata id="CorelCorpID_0Corel-Layer"/>
  <ellipse class="fil0 str0" cx="2892.89" cy="2915.49" rx="2882.54" ry="2905.14"/>
  <rect class="fil1" x="1599.34" y="1959.88" width="2728.28" height="2387.97"/>
  <rect class="fil1" x="1599.34" y="1640.91" width="1035.77" height="627.22"/>
  <g id="_2551759022240">
   <rect class="fil0" x="1877.44" y="2532.84" width="656.72" height="259.46"/>
   <rect class="fil0" x="2635.11" y="2532.84" width="656.72" height="259.46"/>
   <rect class="fil0" x="3392.74" y="2532.84" width="656.72" height="259.46"/>
  </g>
  <path class="fil0" d="M3292.41 3508.7c0.14,-26.14 3.63,-51.88 10.13,-76.66l-83.04 -87.81 48.02 -83.17 117.58 28c18.19,-18.01 38.72,-33.87 61.28,-47.09l3.39 -120.71 92.74 -24.87 63.3 102.88c26.16,0.11 51.9,3.61 76.64,10.11l87.81 -83 83.13 48 -27.96 117.51c18.03,18.22 33.91,38.78 47.13,61.38l120.74 3.42 24.84 92.72 -102.88 63.25c-0.14,26.19 -3.63,51.92 -10.16,76.69l82.97 87.74 -47.98 83.11 -117.44 -27.94c-18.27,18.03 -38.83,33.96 -61.43,47.18l-3.34 120.71 -92.79 24.82 -63.28 -102.8c-26.17,-0.17 -51.88,-3.63 -76.66,-10.13l-87.79 82.96 -83.14 -48.04 27.97 -117.51c-18.03,-18.17 -33.87,-38.73 -47.09,-61.34l-120.69 -3.36 -24.84 -92.72 102.8 -63.32zm181.51 36.8c-19.26,-71.73 23.35,-145.53 95.12,-164.74 71.75,-19.23 145.5,23.38 164.73,95.12 19.24,71.76 -23.35,145.53 -95.12,164.74 -71.75,19.23 -145.52,-23.35 -164.73,-95.12z"/>
  <path class="fil0" d="M2835.54 3676.31c-46.55,152.21 -207.64,237.84 -359.86,191.32 -152.19,-46.5 -237.89,-207.63 -191.38,-359.85 46.55,-152.2 207.69,-237.9 359.88,-191.36 152.25,46.54 237.9,207.69 191.36,359.88zm360.76 62.48l-26.71 87.49 -151.8 -6.25c-14.86,29.91 -32.37,57.86 -52.18,83.65l72.06 133.59 -66.88 62.42 -128.34 -81.31c-27.5,18.19 -56.61,33.65 -87.01,46.28l-4.38 151.87 -89.13 20.6 -70.45 -134.53c-32.47,2.05 -65.44,0.93 -98.52,-3.48l-79.69 129.32 -87.5 -26.76 6.26 -151.75c-29.9,-14.81 -57.86,-32.37 -83.68,-52.2l-133.61 72.09 -62.35 -66.92 81.27 -128.28c-18.17,-27.44 -33.65,-56.61 -46.31,-87.03l-151.83 -4.36 -20.58 -89.16 134.47 -70.41c-2.03,-32.5 -0.91,-65.55 3.5,-98.63l-129.27 -79.62 26.78 -87.53 151.67 6.26c14.83,-29.93 32.38,-57.9 52.22,-83.72l-72.06 -133.59 66.9 -62.4 128.24 81.28c27.5,-18.18 56.68,-33.69 87.1,-46.3l4.36 -151.75 89.13 -20.6 70.43 134.44c32.5,-2.03 65.55,-0.91 98.65,3.52l79.64 -129.22 87.49 26.71 -6.25 151.72c29.93,14.83 57.9,32.39 83.72,52.22l133.59 -72.06 62.4 66.9 -81.32 128.3c18.15,27.48 33.66,56.66 46.27,87.09l151.83 4.36 20.54 89.1 -134.46 70.45c2.03,32.45 0.89,65.45 -3.52,98.53l129.32 79.69z"/>
  <g id="_2551759021808">
   <rect class="fil0" x="1877.44" y="2206.75" width="656.72" height="259.46"/>
   <rect class="fil0" x="2635.11" y="2206.75" width="656.72" height="259.46"/>
   <rect class="fil0" x="3392.74" y="2206.75" width="656.72" height="259.46"/>
  </g>
 </g>
</svg>
