<?xml version="1.0" encoding="UTF-8"?>
<!DOCTYPE svg PUBLIC "-//W3C//DTD SVG 1.1//EN" "http://www.w3.org/Graphics/SVG/1.1/DTD/svg11.dtd">
<!-- Creator: CorelDRAW -->
<svg xmlns="http://www.w3.org/2000/svg" xml:space="preserve" width="56.8188mm" height="56.8188mm" version="1.1" style="shape-rendering:geometricPrecision; text-rendering:geometricPrecision; image-rendering:optimizeQuality; fill-rule:evenodd; clip-rule:evenodd"
viewBox="0 0 5150.19 5150.19"
 xmlns:xlink="http://www.w3.org/1999/xlink"
 xmlns:xodm="http://www.corel.com/coreldraw/odm/2003">
 <defs>
  <style type="text/css">
   <![CDATA[
    .str0 {stroke:#FEFEFE;stroke-width:18.13;stroke-miterlimit:22.9256}
    .str1 {stroke:#FEFEFE;stroke-width:98.98;stroke-linecap:round;stroke-linejoin:round;stroke-miterlimit:22.9256}
    .fil4 {fill:none}
    .fil0 {fill:#FEFEFE}
    .fil3 {fill:#265D94}
    .fil1 {fill:#1C1B17;fill-rule:nonzero}
    .fil2 {fill:#265D94;fill-rule:nonzero}
   ]]>
  </style>
 </defs>
 <g id="Слой_x0020_1">
  <metadata id="CorelCorpID_0Corel-Layer"/>
  <circle class="fil0 str0" cx="2575.1" cy="2575.09" r="2566.03"/>
  <path class="fil1" d="M3233.43 3193.12l0 0c-169.3,169.3 -394.39,262.54 -633.82,262.54 -239.42,0 -464.51,-93.23 -633.81,-262.54 -169.28,-169.3 -262.52,-394.39 -262.52,-633.81 0,-239.42 93.23,-464.51 262.52,-633.82 169.3,-169.28 394.38,-262.52 633.81,-262.52 239.42,0 464.51,93.23 633.82,262.52 169.3,169.3 262.54,394.39 262.54,633.82 0,239.41 -93.23,464.51 -262.54,633.81z"/>
  <path class="fil2" d="M4343.29 2445.01c11.86,-7.93 23.77,-16.02 35.38,-24.12 11.48,-8.09 22.79,-16.2 33.71,-24.16 10.91,-7.98 21.46,-15.82 31.44,-23.37 10,-7.54 19.14,-14.76 27.75,-21.5 17.11,-13.51 31.31,-25.11 41.24,-33.29 4.99,-4.1 8.86,-7.33 11.46,-9.54 2.61,-2.23 4.01,-3.41 4.01,-3.41 0,0 -1.1,-7.89 -3.03,-21.68 -1,-6.88 -2.03,-15.27 -3.6,-24.85 -1.57,-9.58 -3.36,-20.36 -5.31,-32.14 -8.09,-47.07 -20.97,-109.51 -37.54,-171.05 -16.34,-61.58 -36.32,-122.14 -52.74,-167.01 -4.25,-11.18 -8.12,-21.41 -11.58,-30.48 -1.73,-4.53 -3.35,-8.77 -4.85,-12.7 -1.58,-3.88 -3.05,-7.46 -4.36,-10.68 -5.27,-12.91 -8.28,-20.28 -8.28,-20.28 0,0 -7.19,-1.3 -19.8,-3.54 -12.62,-2.18 -30.83,-5.09 -52.41,-8.24 -10.8,-1.58 -22.45,-3.2 -34.75,-4.8 -12.36,-1.59 -25.48,-3.09 -38.92,-4.54 -13.45,-1.44 -27.29,-2.83 -41.31,-4.07 -13.98,-1.28 -28.43,-2.29 -42.65,-3.24 -14.26,-0.92 -28.44,-1.72 -42.35,-2.37 -6.06,-0.3 -12.12,-0.52 -18.12,-0.72 -24.91,-48.36 -52.06,-95.36 -81.42,-140.94 9.16,-17.37 18.33,-35.42 27.46,-53.88 12.66,-25.7 24.5,-51.57 35.54,-76.42 11,-24.84 20.47,-48.12 28.63,-68.49 8.18,-20.38 14.55,-37.44 18.94,-49.45 4.36,-12.06 6.87,-18.95 6.87,-18.95 0,0 -4.86,-6.3 -13.33,-17.35 -4.37,-5.4 -9.65,-12 -15.74,-19.54 -6.09,-7.53 -12.85,-16.13 -20.63,-25.18 -7.72,-9.1 -15.99,-19.04 -24.94,-29.37 -9.07,-10.22 -18.64,-21 -28.54,-32.15 -10.16,-10.92 -20.65,-22.2 -31.33,-33.66 -10.93,-11.19 -22.04,-22.59 -33.14,-33.96 -11.39,-11.11 -22.77,-22.23 -33.98,-33.16 -11.46,-10.66 -22.74,-21.16 -33.66,-31.33 -11.15,-9.89 -21.92,-19.45 -32.16,-28.53 -10.32,-8.96 -20.26,-17.23 -29.35,-24.95 -9.05,-7.77 -17.66,-14.52 -25.17,-20.63 -7.56,-6.07 -14.14,-11.38 -19.56,-15.74 -11.04,-8.48 -17.35,-13.32 -17.35,-13.32 0,0 -6.9,2.5 -18.95,6.86 -12,4.4 -29.07,10.77 -49.45,18.94 -20.37,8.17 -43.66,17.64 -68.48,28.65 -24.86,11.03 -50.74,22.86 -76.42,35.52 -18.46,9.14 -36.52,18.3 -53.89,27.48 -45.58,-29.37 -92.58,-56.53 -140.93,-81.44 -0.21,-6 -0.43,-12.06 -0.71,-18.12 -0.66,-13.9 -1.44,-28.09 -2.38,-42.33 -0.95,-14.23 -1.96,-28.69 -3.22,-42.67 -1.27,-14 -2.65,-27.86 -4.09,-41.32 -1.46,-13.44 -2.95,-26.55 -4.54,-38.91 -1.6,-12.28 -3.23,-23.96 -4.8,-34.75 -3.15,-21.58 -6.05,-39.79 -8.22,-52.41 -2.27,-12.59 -3.55,-19.8 -3.55,-19.8 0,0 -7.37,-3.02 -20.28,-8.28 -3.23,-1.31 -6.79,-2.76 -10.68,-4.36 -3.92,-1.5 -8.17,-3.12 -12.7,-4.84 -9.07,-3.44 -19.32,-7.33 -30.48,-11.58 -44.87,-16.42 -105.42,-36.4 -167.01,-52.74 -61.53,-16.56 -123.98,-29.44 -171.04,-37.54 -11.77,-1.95 -22.57,-3.73 -32.15,-5.32 -9.57,-1.54 -17.97,-2.58 -24.85,-3.59 -13.8,-1.93 -21.67,-3.03 -21.67,-3.03 0,0 -1.19,1.4 -3.4,4.01 -2.21,2.6 -5.45,6.46 -9.55,11.45 -8.19,9.94 -19.78,24.14 -33.28,41.25 -6.76,8.6 -13.98,17.77 -21.52,27.75 -7.55,10 -15.38,20.53 -23.36,31.44 -7.97,10.92 -16.08,22.23 -24.17,33.72 -8.09,11.6 -16.19,23.51 -24.1,35.38 -7.95,11.87 -15.72,23.76 -23.23,35.46 -3.28,5.12 -6.51,10.26 -9.69,15.37 -27.03,-1.26 -54.15,-1.93 -81.4,-1.93 -27.22,0 -54.36,0.67 -81.4,1.93 -3.16,-5.11 -6.4,-10.25 -9.66,-15.37 -7.52,-11.7 -15.3,-23.59 -23.23,-35.46 -7.93,-11.87 -16.02,-23.78 -24.11,-35.38 -8.09,-11.49 -16.21,-22.8 -24.18,-33.72 -7.96,-10.91 -15.8,-21.45 -23.35,-31.44 -7.54,-9.98 -14.77,-19.14 -21.5,-27.75 -13.51,-17.11 -25.11,-31.31 -33.29,-41.25 -4.1,-4.99 -7.33,-8.85 -9.54,-11.45 -2.23,-2.61 -3.41,-4.01 -3.41,-4.01 0,0 -7.89,1.1 -21.68,3.03 -6.88,1.01 -15.27,2.05 -24.85,3.59 -9.58,1.6 -20.38,3.37 -32.15,5.32 -47.06,8.09 -109.51,20.97 -171.04,37.54 -61.58,16.34 -122.14,36.33 -167.01,52.74 -11.18,4.25 -21.41,8.14 -30.48,11.58 -4.53,1.72 -8.77,3.34 -12.7,4.84 -3.88,1.6 -7.46,3.05 -10.68,4.36 -12.91,5.27 -20.28,8.28 -20.28,8.28 0,0 -1.3,7.21 -3.54,19.8 -2.18,12.62 -5.09,30.83 -8.25,52.41 -1.57,10.8 -3.19,22.47 -4.79,34.75 -1.59,12.36 -3.07,25.47 -4.54,38.91 -1.44,13.46 -2.83,27.32 -4.07,41.32 -1.28,13.98 -2.29,28.43 -3.24,42.67 -0.92,14.24 -1.73,28.43 -2.37,42.33 -0.3,6.05 -0.52,12.12 -0.72,18.12 -48.36,24.91 -95.36,52.06 -140.94,81.44 -17.37,-9.18 -35.42,-18.35 -53.88,-27.48 -25.7,-12.66 -51.57,-24.49 -76.42,-35.52 -24.84,-11.01 -48.1,-20.49 -68.49,-28.65 -20.36,-8.18 -37.44,-14.55 -49.45,-18.94 -12.06,-4.36 -18.95,-6.86 -18.95,-6.86 0,0 -6.3,4.84 -17.33,13.32 -5.44,4.37 -12.02,9.67 -19.56,15.74 -7.53,6.11 -16.13,12.86 -25.2,20.63 -9.08,7.72 -19.03,16 -29.35,24.95 -10.22,9.08 -21,18.65 -32.15,28.53 -10.92,10.16 -22.2,20.67 -33.66,31.33 -11.19,10.93 -22.59,22.04 -33.96,33.16 -11.11,11.38 -22.23,22.77 -33.16,33.96 -10.66,11.47 -21.16,22.74 -31.33,33.66 -9.89,11.15 -19.46,21.94 -28.53,32.15 -8.96,10.32 -17.23,20.27 -24.94,29.37 -7.79,9.05 -14.54,17.65 -20.65,25.18 -6.07,7.54 -11.38,14.14 -15.74,19.54 -8.48,11.05 -13.32,17.35 -13.32,17.35 0,0 2.49,6.9 6.88,18.95 4.38,12 10.75,29.07 18.93,49.45 8.17,20.37 17.64,43.65 28.65,68.49 11.03,24.85 22.86,50.72 35.52,76.42 9.14,18.45 18.3,36.51 27.46,53.88 -29.35,45.58 -56.52,92.58 -81.42,140.94 -6,0.2 -12.06,0.42 -18.12,0.72 -13.89,0.64 -28.09,1.44 -42.35,2.37 -14.21,0.94 -28.67,1.96 -42.65,3.24 -14,1.24 -27.86,2.63 -41.32,4.07 -13.44,1.45 -26.56,2.95 -38.91,4.54 -12.28,1.6 -23.96,3.23 -34.75,4.8 -21.58,3.15 -39.8,6.05 -52.41,8.24 -12.59,2.24 -19.8,3.54 -19.8,3.54 0,0 -3.02,7.37 -8.29,20.28 -1.31,3.22 -2.76,6.8 -4.35,10.68 -1.5,3.92 -3.12,8.17 -4.84,12.7 -3.44,9.07 -7.33,19.31 -11.58,30.48 -16.42,44.87 -36.4,105.43 -52.74,167.01 -16.56,61.54 -29.44,123.98 -37.54,171.05 -1.95,11.78 -3.73,22.56 -5.32,32.14 -1.54,9.58 -2.58,17.97 -3.59,24.85 -1.93,13.8 -3.03,21.68 -3.03,21.68 0,0 1.4,1.18 4.01,3.41 2.6,2.21 6.46,5.45 11.45,9.54 9.94,8.19 24.14,19.79 41.27,33.29 8.58,6.74 17.75,13.96 27.73,21.5 10,7.55 20.53,15.39 31.46,23.37 10.91,7.96 22.21,16.07 33.7,24.16 11.6,8.1 23.51,16.19 35.38,24.12 11.87,7.93 23.76,15.7 35.46,23.21 5.12,3.28 10.26,6.51 15.37,9.68 -1.28,27.04 -1.93,54.18 -1.93,81.41 0,27.24 0.65,54.36 1.93,81.4 -5.11,3.17 -10.25,6.4 -15.37,9.68 -11.7,7.51 -23.59,15.28 -35.46,23.21 -11.87,7.93 -23.78,16.03 -35.38,24.12 -11.49,8.09 -22.79,16.2 -33.7,24.17 -10.93,7.96 -21.46,15.8 -31.46,23.35 -9.98,7.54 -19.14,14.76 -27.73,21.52 -17.13,13.49 -31.33,25.09 -41.27,33.27 -4.99,4.1 -8.85,7.35 -11.45,9.56 -2.61,2.21 -4.01,3.4 -4.01,3.4 0,0 1.1,7.88 3.03,21.67 1.01,6.89 2.05,15.28 3.59,24.86 1.6,9.57 3.37,20.37 5.32,32.14 8.09,47.07 20.97,109.51 37.54,171.04 16.34,61.58 36.33,122.15 52.74,167.01 4.25,11.18 8.14,21.41 11.58,30.48 1.72,4.53 3.34,8.77 4.84,12.7 1.6,3.89 3.05,7.46 4.35,10.68 5.28,12.91 8.29,20.28 8.29,20.28 0,0 7.21,1.3 19.8,3.54 12.61,2.18 30.83,5.09 52.41,8.24 10.8,1.58 22.47,3.2 34.75,4.81 12.35,1.58 25.47,3.08 38.91,4.53 13.46,1.44 27.32,2.83 41.32,4.09 13.98,1.26 28.43,2.28 42.65,3.22 14.26,0.94 28.46,1.72 42.35,2.38 6.05,0.28 12.12,0.5 18.12,0.7 24.91,48.36 52.07,95.37 81.42,140.94 -9.16,17.37 -18.33,35.42 -27.46,53.88 -12.66,25.7 -24.49,51.57 -35.52,76.43 -11.01,24.83 -20.49,48.11 -28.65,68.48 -8.18,20.38 -14.55,37.44 -18.93,49.45 -4.39,12.06 -6.88,18.95 -6.88,18.95 0,0 4.84,6.31 13.32,17.35 4.37,5.42 9.67,12 15.74,19.54 6.11,7.55 12.86,16.15 20.65,25.2 7.7,9.08 15.98,19.03 24.94,29.35 9.07,10.22 18.65,21 28.53,32.15 10.16,10.92 20.67,22.21 31.33,33.66 10.93,11.21 22.04,22.59 33.16,33.98 11.38,11.09 22.77,22.21 33.96,33.14 11.47,10.66 22.74,21.16 33.66,31.33 11.15,9.91 21.94,19.47 32.15,28.54 10.32,8.95 20.27,17.22 29.35,24.94 9.06,7.77 17.67,14.52 25.2,20.63 7.54,6.09 14.12,11.38 19.56,15.74 11.03,8.48 17.33,13.32 17.33,13.32 0,0 6.89,-2.5 18.95,-6.86 12,-4.4 29.09,-10.77 49.45,-18.94 20.39,-8.17 43.65,-17.63 68.49,-28.63 24.85,-11.05 50.72,-22.86 76.42,-35.54 18.45,-9.14 36.51,-18.3 53.88,-27.46 45.58,29.36 92.58,56.52 140.94,81.42 0.2,6 0.42,12.06 0.72,18.12 0.63,13.9 1.44,28.09 2.37,42.35 0.94,14.21 1.96,28.67 3.24,42.66 1.24,14.01 2.63,27.85 4.07,41.31 1.47,13.44 2.95,26.55 4.54,38.91 1.6,12.3 3.23,23.96 4.79,34.75 3.15,21.58 6.06,39.79 8.25,52.41 2.24,12.61 3.54,19.8 3.54,19.8 0,0 7.37,3.02 20.28,8.28 3.22,1.31 6.8,2.76 10.68,4.36 3.92,1.5 8.17,3.12 12.7,4.85 9.07,3.45 19.31,7.32 30.48,11.58 44.87,16.42 105.43,36.4 167.01,52.74 61.54,16.56 123.98,29.44 171.04,37.54 11.77,1.95 22.57,3.74 32.15,5.32 9.58,1.56 17.97,2.59 24.85,3.59 13.8,1.93 21.68,3.03 21.68,3.03 0,0 1.18,-1.4 3.41,-4.01 2.21,-2.6 5.45,-6.46 9.54,-11.45 8.19,-9.93 19.79,-24.14 33.29,-41.25 6.73,-8.6 13.96,-17.77 21.5,-27.75 7.55,-9.98 15.39,-20.53 23.35,-31.44 7.98,-10.92 16.09,-22.23 24.18,-33.7 8.09,-11.62 16.18,-23.53 24.11,-35.39 7.93,-11.88 15.71,-23.77 23.23,-35.47 3.26,-5.12 6.49,-10.26 9.66,-15.35 27.04,1.26 54.18,1.91 81.4,1.91 27.25,0 54.37,-0.65 81.4,-1.91 3.18,5.09 6.41,10.23 9.69,15.35 7.51,11.7 15.28,23.59 23.23,35.47 7.91,11.86 16.01,23.77 24.1,35.39 8.09,11.48 16.2,22.78 24.17,33.7 7.98,10.91 15.81,21.46 23.36,31.44 7.54,9.98 14.76,19.14 21.52,27.75 13.51,17.11 25.09,31.33 33.28,41.25 4.11,4.99 7.34,8.85 9.55,11.45 2.21,2.61 3.4,4.01 3.4,4.01 0,0 7.88,-1.1 21.67,-3.03 6.89,-1 15.28,-2.03 24.85,-3.59 9.58,-1.58 20.38,-3.37 32.15,-5.32 47.06,-8.09 109.51,-20.97 171.04,-37.54 61.59,-16.34 122.14,-36.32 167.01,-52.74 11.17,-4.25 21.41,-8.12 30.48,-11.58 4.53,-1.73 8.77,-3.35 12.7,-4.85 3.89,-1.6 7.45,-3.05 10.68,-4.36 12.91,-5.27 20.28,-8.28 20.28,-8.28 0,0 1.29,-7.19 3.55,-19.8 2.17,-12.62 5.08,-30.83 8.22,-52.41 1.58,-10.8 3.21,-22.45 4.8,-34.75 1.59,-12.36 3.08,-25.47 4.54,-38.91 1.44,-13.46 2.82,-27.3 4.09,-41.31 1.26,-13.99 2.27,-28.44 3.22,-42.66 0.94,-14.26 1.72,-28.44 2.38,-42.35 0.28,-6.05 0.5,-12.12 0.71,-18.12 48.35,-24.91 95.35,-52.06 140.93,-81.42 17.37,9.16 35.42,18.33 53.89,27.46 25.68,12.68 51.56,24.49 76.42,35.54 24.82,11 48.11,20.47 68.48,28.63 20.38,8.18 37.44,14.55 49.45,18.94 12.06,4.36 18.95,6.86 18.95,6.86 0,0 6.31,-4.84 17.35,-13.32 5.42,-4.37 12,-9.65 19.56,-15.74 7.51,-6.11 16.13,-12.86 25.17,-20.63 9.09,-7.72 19.03,-16 29.35,-24.94 10.24,-9.07 21.01,-18.64 32.16,-28.54 10.92,-10.16 22.21,-20.67 33.66,-31.33 11.21,-10.93 22.59,-22.04 33.98,-33.14 11.09,-11.39 22.21,-22.77 33.14,-33.98 10.68,-11.46 21.16,-22.74 31.33,-33.66 9.91,-11.15 19.47,-21.94 28.54,-32.15 8.96,-10.32 17.22,-20.27 24.94,-29.35 7.78,-9.05 14.54,-17.65 20.63,-25.2 6.09,-7.54 11.38,-14.12 15.74,-19.54 8.48,-11.04 13.33,-17.35 13.33,-17.35 0,0 -2.51,-6.9 -6.87,-18.95 -4.4,-12 -10.77,-29.07 -18.94,-49.45 -8.17,-20.37 -17.63,-43.65 -28.63,-68.48 -11.04,-24.86 -22.88,-50.73 -35.54,-76.43 -9.14,-18.45 -18.3,-36.51 -27.46,-53.88 29.36,-45.57 56.52,-92.58 81.42,-140.94 6,-0.2 12.06,-0.42 18.12,-0.7 13.9,-0.66 28.09,-1.44 42.35,-2.38 14.21,-0.94 28.67,-1.96 42.65,-3.22 14.02,-1.26 27.86,-2.65 41.31,-4.09 13.44,-1.45 26.56,-2.95 38.92,-4.53 12.3,-1.61 23.96,-3.24 34.75,-4.81 21.58,-3.15 39.79,-6.05 52.41,-8.24 12.61,-2.24 19.8,-3.54 19.8,-3.54 0,0 3.02,-7.37 8.28,-20.28 1.31,-3.22 2.78,-6.79 4.36,-10.68 1.5,-3.92 3.12,-8.17 4.85,-12.7 3.45,-9.07 7.32,-19.31 11.58,-30.48 16.42,-44.86 36.4,-105.43 52.74,-167.01 16.56,-61.54 29.44,-123.97 37.54,-171.04 1.95,-11.77 3.74,-22.57 5.31,-32.14 1.57,-9.58 2.6,-17.97 3.6,-24.86 1.93,-13.8 3.03,-21.67 3.03,-21.67 0,0 -1.4,-1.19 -4.01,-3.4 -2.6,-2.21 -6.46,-5.47 -11.46,-9.56 -9.93,-8.19 -24.13,-19.79 -41.24,-33.27 -8.6,-6.76 -17.75,-13.98 -27.75,-21.52 -9.98,-7.55 -20.53,-15.39 -31.44,-23.35 -10.92,-7.98 -22.23,-16.09 -33.71,-24.17 -11.61,-8.09 -23.52,-16.19 -35.38,-24.12 -11.88,-7.93 -23.77,-15.7 -35.47,-23.21 -5.12,-3.28 -10.26,-6.51 -15.35,-9.68 1.26,-27.04 1.91,-54.18 1.91,-81.4 0,-27.23 -0.65,-54.37 -1.91,-81.41 5.09,-3.17 10.23,-6.4 15.35,-9.68 11.7,-7.51 23.59,-15.28 35.47,-23.21z"/>
  <circle class="fil0 str0" cx="2599.62" cy="2559.31" r="1440.56"/>
  <g id="_2551498153136">
   <circle class="fil3" transform="matrix(2.37266 -2.37266 2.37266 2.37266 3297.79 3266.36)" r="68.34"/>
   <path class="fil3" d="M3442.4 3088.35l-884.88 -805.48c-125.67,-114.42 -7.56,-353.6 -196.47,-501.72 -105.21,-82.46 -235.53,-88.81 -342.39,-67.99l120.5 121.99 75.41 78.11 -29.9 104.31 -29.94 104.39 -104.39 29.94 -104.3 29.89 -78.1 -75.41 -121.99 -120.49c-20.84,106.87 -14.47,237.18 67.97,342.35 148.15,188.93 387.58,70.72 501.74,196.5l804.12 886.24c71.88,23.32 174.72,48.85 273.31,-49.32 98.15,-98.57 72.64,-201.43 49.31,-273.3z"/>
   <circle class="fil3" transform="matrix(1.1601 -1.1601 1.1601 1.1601 3297.79 3266.36)" r="68.34"/>
  </g>
  <g id="_2551498160864">
   <g>
    <polygon class="fil4 str1" points="3503.7,1793.66 3333.94,2055.61 3211.59,2075.78 2813.96,2459.75 1877.78,3363.87 1843.77,3328.63 1795.48,3278.68 3129.26,1990.55 3153.69,1868.95 3421.36,1708.45 3462.54,1751.06 "/>
    <polygon id="_1" class="fil3" points="3503.7,1793.66 3333.94,2055.61 3211.59,2075.78 2813.96,2459.75 1877.78,3363.87 1843.77,3328.63 1795.48,3278.68 3129.26,1990.55 3153.69,1868.95 3421.36,1708.45 3462.54,1751.06 "/>
   </g>
   <g>
    <path class="fil3" d="M2369.88 2806.31l-145.17 -150.33c-34.04,-35.24 -60.78,-1.98 -71.44,24.51l-36.57 90.83 -381.35 367.9 139.84 144.81 494.7 -477.72z"/>
    <path class="fil3" d="M2369.88 2806.31l145.16 150.33c34.04,35.25 -0.14,60.82 -26.98,70.55l-92.05 33.38 -380.99 368.27 -139.84 -144.81 494.7 -477.72z"/>
   </g>
   <circle class="fil3" transform="matrix(2.04612 2.11882 -2.11882 2.04612 1875.18 3284.04)" r="68.34"/>
   <path class="fil3" d="M2209.31 2841.02l0.01 0.02c14.36,14.87 13.89,38.81 -0.92,53.12l-381.05 367.98c-14.81,14.3 -38.8,13.89 -53.12,-0.93l-0.01 -0.02c-14.31,-14.81 -13.94,-38.75 0.92,-53.11l381.05 -367.98c14.87,-14.36 38.76,-13.94 53.12,0.92z"/>
   <path class="fil3" d="M2329.58 2965.57l-0.02 -0.02c-14.36,-14.87 -38.3,-15.23 -53.11,-0.92l-381.05 367.98c-14.82,14.3 -15.24,38.3 -0.93,53.11l0.02 0.02c14.3,14.82 38.25,15.28 53.12,0.93l381.05 -367.98c14.87,-14.36 15.28,-38.25 0.92,-53.12z"/>
  </g>
 </g>
</svg>
