<?xml version="1.0" encoding="UTF-8"?>
<!DOCTYPE svg PUBLIC "-//W3C//DTD SVG 1.1//EN" "http://www.w3.org/Graphics/SVG/1.1/DTD/svg11.dtd">
<!-- Creator: CorelDRAW -->
<svg xmlns="http://www.w3.org/2000/svg" xml:space="preserve" width="55.909mm" height="56.3458mm" version="1.1" style="shape-rendering:geometricPrecision; text-rendering:geometricPrecision; image-rendering:optimizeQuality; fill-rule:evenodd; clip-rule:evenodd"
viewBox="0 0 7026.77 7081.67"
 xmlns:xlink="http://www.w3.org/1999/xlink"
 xmlns:xodm="http://www.corel.com/coreldraw/odm/2003">
 <defs>
  <style type="text/css">
   <![CDATA[
    .str0 {stroke:#FEFEFE;stroke-width:25.14;stroke-miterlimit:22.9256}
    .fil0 {fill:#FEFEFE}
    .fil2 {fill:#265D94}
    .fil1 {fill:#FEFEFE;fill-rule:nonzero}
    .fil3 {fill:#265D94;fill-rule:nonzero}
   ]]>
  </style>
 </defs>
 <g id="Слой_x0020_1">
  <metadata id="CorelCorpID_0Corel-Layer"/>
  <ellipse class="fil0 str0" cx="3513.39" cy="3540.83" rx="3500.81" ry="3528.26"/>
  <g>
   <path class="fil0" d="M3402.14 1079.69c1155.5,0 2092.3,944.15 2092.3,2108.7 0,1164.56 -936.8,2108.71 -2092.3,2108.71 -1155.5,0 -2092.31,-944.15 -2092.31,-2108.71 0,-1164.55 936.81,-2108.7 2092.31,-2108.7z"/>
   <path id="_1" class="fil1" d="M5603.46 3188.38l-218.03 0 0 0 -2.59 -102.97 -7.67 -101.55 -12.61 -100.02 -17.43 -98.41 -22.15 -96.66 -26.72 -94.81 -31.16 -92.83 -35.51 -90.73 -39.7 -88.52 -43.79 -86.17 -47.76 -83.69 -51.59 -81.1 -55.3 -78.39 -58.89 -75.52 -62.35 -72.54 -65.69 -69.44 -68.9 -66.21 -71.99 -62.85 -74.94 -59.35 -77.76 -55.74 -80.47 -51.99 -83.05 -48.12 -85.49 -44.13 -87.83 -40.02 -90.04 -35.79 -92.1 -31.41 -94.07 -26.92 -95.92 -22.31 -97.63 -17.58 -99.25 -12.72 -100.76 -7.72 -102.17 -2.6 0 -219.74 113.15 2.88 111.77 8.57 110.16 14.1 108.41 19.52 106.53 24.77 104.5 29.91 102.33 34.9 99.99 39.74 97.53 44.44 94.94 49 92.2 53.43 89.3 57.7 86.31 61.85 83.14 65.86 79.86 69.72 76.41 73.42 72.88 77.03 69.16 80.49 65.33 83.79 61.38 86.98 57.25 90 53.01 92.92 48.61 95.67 44.1 98.3 39.43 100.78 34.63 103.13 29.69 105.32 24.58 107.37 19.37 109.27 13.99 111.03 8.5 112.61 2.87 114.06 0 0zm0 0c0,60.68 -48.81,109.87 -109.02,109.87 -60.2,0 -109.02,-49.19 -109.02,-109.87l218.03 0zm-2201.31 2218.58l0 -219.74 0 0 102.17 -2.6 100.76 -7.72 99.25 -12.72 97.63 -17.58 95.92 -22.31 94.07 -26.92 92.1 -31.41 90.04 -35.79 87.83 -40.02 85.49 -44.13 83.05 -48.12 80.47 -51.99 77.76 -55.74 74.94 -59.35 71.99 -62.85 68.9 -66.21 65.69 -69.44 62.35 -72.54 58.89 -75.54 55.31 -78.39 51.58 -81.09 47.76 -83.69 43.78 -86.18 39.72 -88.52 35.51 -90.73 31.16 -92.83 26.73 -94.8 22.13 -96.66 17.43 -98.42 12.61 -100.02 7.67 -101.55 2.59 -102.97 218.03 0 -2.87 114.06 -8.5 112.61 -13.99 111.03 -19.37 109.28 -24.6 107.37 -29.67 105.31 -34.63 103.13 -39.43 100.78 -44.09 98.3 -48.63 95.68 -53.01 92.92 -57.26 90.01 -61.37 86.96 -65.33 83.8 -69.16 80.49 -72.88 77.03 -76.41 73.42 -79.86 69.72 -83.14 65.86 -86.31 61.85 -89.3 57.7 -92.2 53.43 -94.94 49 -97.53 44.44 -99.99 39.74 -102.33 34.9 -104.5 29.91 -106.53 24.77 -108.41 19.52 -110.16 14.1 -111.77 8.57 -113.15 2.88 0 0zm0 0c-60.2,0 -109.02,-49.19 -109.02,-109.87 0,-60.68 48.81,-109.87 109.02,-109.87l0 219.74zm-2201.32 -2218.58l218.03 0 0 0 2.59 102.97 7.67 101.55 12.61 100.02 17.43 98.42 22.13 96.66 26.73 94.8 31.16 92.83 35.51 90.73 39.7 88.52 43.8 86.18 47.75 83.69 51.59 81.09 55.31 78.39 58.88 75.54 62.36 72.54 65.68 69.44 68.91 66.21 71.99 62.85 74.94 59.35 77.76 55.74 80.47 51.99 83.04 48.12 85.5 44.13 87.83 40.02 90.04 35.79 92.1 31.41 94.06 26.93 95.92 22.3 97.64 17.58 99.25 12.72 100.76 7.72 102.17 2.6 0 219.74 -113.15 -2.88 -111.77 -8.57 -110.16 -14.1 -108.43 -19.52 -106.53 -24.78 -104.49 -29.9 -102.33 -34.9 -99.99 -39.74 -97.53 -44.44 -94.95 -49 -92.19 -53.43 -89.3 -57.7 -86.31 -61.85 -83.14 -65.86 -79.86 -69.72 -76.43 -73.42 -72.87 -77.03 -69.18 -80.49 -65.34 -83.8 -61.35 -86.96 -57.27 -90.01 -53 -92.92 -48.63 -95.68 -44.1 -98.3 -39.43 -100.78 -34.63 -103.13 -29.67 -105.31 -24.6 -107.37 -19.37 -109.28 -13.99 -111.03 -8.5 -112.61 -2.87 -114.06 0 0zm0 0c0,-60.68 48.81,-109.87 109.02,-109.87 60.2,0 109.02,49.19 109.02,109.87l-218.03 0zm2201.32 -2218.57l0 219.74 0 0 -102.17 2.6 -100.76 7.72 -99.25 12.72 -97.64 17.58 -95.92 22.3 -94.06 26.93 -92.1 31.41 -90.04 35.79 -87.83 40.02 -85.5 44.13 -83.04 48.12 -80.47 51.99 -77.76 55.74 -74.94 59.35 -71.99 62.85 -68.91 66.21 -65.68 69.44 -62.36 72.54 -58.88 75.52 -55.3 78.39 -51.61 81.1 -47.75 83.69 -43.8 86.17 -39.7 88.52 -35.51 90.73 -31.16 92.83 -26.72 94.81 -22.15 96.66 -17.43 98.41 -12.61 100.02 -7.67 101.55 -2.59 102.97 -218.03 0 2.87 -114.06 8.5 -112.61 13.99 -111.03 19.37 -109.27 24.58 -107.37 29.69 -105.32 34.63 -103.13 39.43 -100.78 44.1 -98.3 48.63 -95.67 53 -92.92 57.26 -90 61.36 -86.98 65.34 -83.79 69.18 -80.49 72.87 -77.03 76.43 -73.42 79.86 -69.72 83.14 -65.86 86.31 -61.85 89.3 -57.7 92.19 -53.43 94.95 -49 97.53 -44.44 99.99 -39.74 102.33 -34.9 104.49 -29.9 106.53 -24.78 108.43 -19.52 110.16 -14.1 111.77 -8.57 113.15 -2.88 0 0zm0 0c60.2,0 109.02,49.19 109.02,109.87 0,60.68 -48.81,109.87 -109.02,109.87l0 -219.74z"/>
  </g>
  <path class="fil2" d="M2414.76 1546.02c-10.67,102.29 17.24,232.73 78.07,333.01 47.71,78.34 118.22,144.18 220.07,156.85 102.31,8.96 184.87,-40.67 247.63,-107.32 80.25,-85.33 134.39,-207.06 145.06,-309.35 20.32,-194.85 -115.25,-372.32 -308.27,-392.77 -193.09,-20.46 -362.24,124.74 -382.56,319.58z"/>
  <rect class="fil2" x="4314.57" y="2919.34" width="540.1" height="2395.86"/>
  <path class="fil2" d="M3810.89 3387.87l876.65 0 641.53 -1645.68c23.16,-59.4 16.1,-120.92 -19.42,-173.59 -35.53,-52.67 -90.01,-81.67 -153.17,-81.67l-393.99 0c-129.55,0 -240.33,76.14 -287.57,197.64l-33.73 86.61 -630.3 1616.7z"/>
  <path class="fil2" d="M3976.16 4926.96l-260.78 -935.93c-50.65,-181.74 -137.46,-340.93 -327.09,-361.58l-671.99 -73.25c5.73,-192.56 92.98,-767.7 202.88,-974.88 68.72,-130.06 33.92,-158.2 -34.45,-305.76 -97.73,-211.05 -525.49,-248.47 -661.43,32.02 -166.01,342.37 -189.45,855.57 -200.55,1221.57 -11.27,373.13 -6.54,532.4 360.1,532.4l778.84 0c91.46,0 121.89,41.4 164.67,151.07l301.4 837.26c74.91,208.15 418.2,127.71 348.39,-122.93z"/>
  <path class="fil2" d="M3883.83 2322.82l-476.56 153.63c-105.52,34.02 -144.17,18.43 -235.3,-26.76l-362.63 -266.04c-68.18,-33.9 -500.28,174.36 -174.6,357.06l490.88 275.57c101.89,57.14 225.26,62.23 350.63,7.58l511.99 -222.97c191.16,-83.24 123.08,-351.45 -104.4,-278.07z"/>
  <g>
   <path class="fil3" d="M3108.75 4403.74l0 -219.82c60.23,0 109.05,49.22 109.05,109.91 0,60.69 -48.83,109.91 -109.05,109.91zm-771.06 0l0 -219.82 771.06 0 0 219.82 -771.06 0zm0 -219.82l0 219.82c-60.23,0 -109.05,-49.22 -109.05,-109.91 0,-60.69 48.83,-109.91 109.05,-109.91zm-466.18 -340.7l0 0.01 4.41 23.08 5.06 21.98 5.69 20.98 6.31 19.91 6.86 18.86 7.47 17.91 7.98 16.95 8.52 16.01 9.06 15.18 9.54 14.3 10.09 13.52 10.63 12.79 11.2 12.09 11.79 11.45 12.44 10.85 13.08 10.24 13.83 9.7 14.55 9.14 15.35 8.61 16.16 8.04 17.04 7.49 17.96 6.95 18.84 6.37 19.78 5.76 20.75 5.17 21.64 4.5 22.66 3.86 23.6 3.22 24.52 2.49 25.53 1.81 26.44 1.11 27.37 0.36 0 219.82 -33.28 -0.44 -32.65 -1.36 -31.99 -2.26 -31.46 -3.22 -30.79 -4.17 -30.18 -5.14 -29.61 -6.18 -28.94 -7.2 -28.3 -8.24 -27.66 -9.34 -26.93 -10.42 -26.27 -11.56 -25.54 -12.72 -24.75 -13.86 -23.9 -15.02 -23.05 -16.19 -22.13 -17.33 -21.19 -18.49 -20.18 -19.59 -19.14 -20.69 -18.05 -21.72 -16.98 -22.75 -15.85 -23.73 -14.69 -24.61 -13.57 -25.54 -12.43 -26.36 -11.31 -27.19 -10.21 -27.99 -9.1 -28.76 -8.03 -29.5 -6.98 -30.25 -5.92 -30.99 0 0.01 214.89 -37.73zm0 0.01l-214.89 37.7c-10.32,-59.8 29.41,-116.73 88.74,-127.14 59.33,-10.41 115.83,29.64 126.15,89.44zm-375.34 -890.61l214.89 -37.73 160.45 928.33 -214.89 37.73 -160.45 -928.33zm214.89 -37.73l-214.89 37.73c-10.33,-59.8 29.4,-116.75 88.73,-127.15 59.33,-10.41 115.83,29.62 126.16,89.42z"/>
  </g>
  <polygon class="fil0" points="4069.96,3227.57 4373.35,3227.57 4969.55,1698.03 4666.16,1698.03 "/>
  <g>
   <path class="fil3" d="M1575.55 5328.55c-59.96,0 -108.58,-49.22 -108.58,-109.92 0,-60.7 48.61,-109.92 108.58,-109.92l0 219.84zm3653.36 0l-3653.36 0 0 -219.84 3653.36 0 0 219.84zm0 -219.84c59.96,0 108.58,49.22 108.58,109.92 0,60.7 -48.61,109.92 -108.58,109.92l0 -219.84z"/>
  </g>
  <g>
   <path class="fil3" d="M3264.7 3393.52c-60.39,0 -109.36,-49.13 -109.36,-109.72 0,-60.59 48.97,-109.72 109.36,-109.72l0 219.44zm1362.47 0l-1362.47 0 0 -219.44 1362.47 0 0 219.44zm0 -219.44c60.39,0 109.36,49.13 109.36,109.72 0,60.59 -48.97,109.72 -109.36,109.72l0 -219.44z"/>
  </g>
 </g>
</svg>
