<?xml version="1.0" encoding="UTF-8"?>
<!DOCTYPE svg PUBLIC "-//W3C//DTD SVG 1.1//EN" "http://www.w3.org/Graphics/SVG/1.1/DTD/svg11.dtd">
<!-- Creator: CorelDRAW -->
<svg xmlns="http://www.w3.org/2000/svg" xml:space="preserve" width="56.8662mm" height="56.8662mm" version="1.1" style="shape-rendering:geometricPrecision; text-rendering:geometricPrecision; image-rendering:optimizeQuality; fill-rule:evenodd; clip-rule:evenodd"
viewBox="0 0 6942.63 6942.63"
 xmlns:xlink="http://www.w3.org/1999/xlink"
 xmlns:xodm="http://www.corel.com/coreldraw/odm/2003">
 <defs>
  <style type="text/css">
   <![CDATA[
    .str0 {stroke:#FEFEFE;stroke-width:24.42;stroke-miterlimit:22.9256}
    .str1 {stroke:#265D94;stroke-width:186.16;stroke-miterlimit:22.9256}
    .fil1 {fill:none}
    .fil0 {fill:#FEFEFE}
    .fil2 {fill:#265D94}
    .fil3 {fill:#265D94;fill-rule:nonzero}
   ]]>
  </style>
 </defs>
 <g id="Слой_x0020_1">
  <metadata id="CorelCorpID_0Corel-Layer"/>
  <circle class="fil0 str0" cx="3471.31" cy="3471.31" r="3459.11"/>
  <path class="fil1 str1" d="M4518.76 5320.69c525.54,0 951.61,-426.07 951.61,-951.61 0,-525.54 -426.07,-951.62 -951.61,-951.62"/>
  <path class="fil2" d="M4723.3 4573.56c-112.94,112.94 -296.13,112.97 -409.08,0.02 -112.93,-112.94 -112.93,-296.16 0.01,-409.1 112.94,-112.93 296.11,-112.94 409.04,0 112.94,112.94 112.97,296.15 0.02,409.08zm361.23 287.05l-74.19 74.25 -150.45 -88.12c-31.18,22.31 -63.99,41.19 -97.96,56.65l1.05 174.19 -101.41 27.23 -86.24 -151.55c-37.66,3.61 -75.5,3.6 -113.1,0.01l-86.27 151.52 -101.42 -27.14 1.1 -174.29c-34.01,-15.42 -66.82,-34.31 -97.95,-56.59l-150.44 88.09 -74.24 -74.25 88.11 -150.4c-22.32,-31.11 -41.19,-63.97 -56.67,-97.97l-174.23 1.06 -27.13 -101.41 151.47 -86.22c-3.63,-37.59 -3.6,-75.49 -0.04,-113.13l-151.51 -86.23 27.19 -101.44 174.19 1.11c15.46,-34.04 34.39,-66.93 56.69,-98.06l-88.1 -150.34 74.3 -74.27 150.31 88.06c31.14,-22.34 64.01,-41.22 98.02,-56.69l-1.05 -174.19 101.43 -27.19 86.14 151.45c37.66,-3.61 75.58,-3.6 113.21,0.02l86.18 -151.44 101.42 27.15 -1.07 174.17c34.04,15.46 66.92,34.39 98.08,56.72l150.31 -88.04 74.27 74.2 -88.07 150.37c22.33,31.14 41.22,64.01 56.69,98.02l174.19 -1.05 27.19 101.43 -151.53 86.19c3.6,37.62 3.59,75.55 -0.04,113.17l151.51 86.22 -27.19 101.36 -174.21 -1.05c-15.44,33.98 -34.37,66.81 -56.65,97.94l88.09 150.44z"/>
  <g>
   <polygon class="fil3" points="4518.76,5413.72 1437.34,5413.72 1437.34,5227.44 4518.76,5227.44 "/>
  </g>
  <g>
   <polygon class="fil3" points="4518.76,3324.38 4518.76,3510.66 1437.34,3510.66 1437.34,3324.38 "/>
  </g>
  <polygon class="fil2" points="5052.38,3648.63 4923,3779.58 4826.88,3724.14 4875.67,3546.46 "/>
  <polygon class="fil2" points="5052.38,5089.52 4923,4958.57 4826.88,5014.01 4875.67,5191.69 "/>
  <polygon class="fil2" points="5345.78,4017.97 5167.43,4063.58 5113.59,3966.56 5246.94,3839.38 "/>
  <polygon class="fil2" points="5345.78,4720.18 5167.43,4674.58 5113.59,4771.59 5246.94,4898.78 "/>
  <polygon class="fil2" points="5413.54,4471.08 5235.44,4424.51 5235.39,4313.56 5413.67,4266.97 "/>
  <polygon class="fil2" points="5413.54,4267.06 5235.44,4313.64 5235.39,4424.59 5413.67,4471.19 "/>
  <polygon class="fil2" points="4620.82,5266.77 4574.26,5088.69 4463.3,5088.64 4416.71,5266.91 "/>
  <g id="_2551504824496">
   <path class="fil2" d="M4237.65 5266.77c-15.53,-59.36 -31.05,-118.72 -46.56,-178.09 -36.99,-0.01 -73.98,-0.02 -110.96,-0.05 -15.53,59.43 -31.06,118.85 -46.59,178.27 68.04,-0.04 136.08,-0.09 204.12,-0.13z"/>
   <path class="fil2" d="M3854.48 5266.77c-15.53,-59.36 -31.05,-118.72 -46.56,-178.09 -36.99,-0.01 -73.98,-0.02 -110.96,-0.05 -15.53,59.43 -31.06,118.85 -46.59,178.27 68.04,-0.04 136.08,-0.09 204.12,-0.13z"/>
   <path class="fil2" d="M3471.31 5266.77c-15.53,-59.36 -31.05,-118.72 -46.56,-178.09 -36.99,-0.01 -73.98,-0.02 -110.96,-0.05 -15.53,59.43 -31.06,118.85 -46.59,178.27 68.04,-0.04 136.08,-0.09 204.12,-0.13z"/>
   <path class="fil2" d="M3088.13 5266.77c-15.53,-59.36 -31.05,-118.72 -46.56,-178.09 -36.99,-0.01 -73.98,-0.02 -110.96,-0.05 -15.53,59.43 -31.06,118.85 -46.59,178.27 68.04,-0.04 136.08,-0.09 204.12,-0.13z"/>
   <path class="fil2" d="M2704.96 5266.77c-15.53,-59.36 -31.05,-118.72 -46.56,-178.09 -36.99,-0.01 -73.98,-0.02 -110.96,-0.05 -15.53,59.43 -31.06,118.85 -46.59,178.27 68.04,-0.04 136.08,-0.09 204.12,-0.13z"/>
   <path class="fil2" d="M2321.79 5266.77c-15.53,-59.36 -31.05,-118.72 -46.56,-178.09 -36.99,-0.01 -73.98,-0.02 -110.96,-0.05 -15.53,59.43 -31.06,118.85 -46.59,178.27 68.04,-0.04 136.08,-0.09 204.12,-0.13z"/>
  </g>
  <polygon class="fil2" points="1938.62,5266.77 1892.06,5088.69 1781.09,5088.64 1734.5,5266.91 "/>
  <polygon class="fil2" points="4620.82,3471.31 4574.26,3649.41 4463.3,3649.46 4416.71,3471.18 "/>
  <g id="_2551504828000">
   <path class="fil2" d="M4237.65 3471.31c-15.53,59.37 -31.05,118.74 -46.56,178.1 -36.99,0.02 -73.98,0.04 -110.96,0.05 -15.53,-59.42 -31.06,-118.85 -46.59,-178.28 68.04,0.05 136.08,0.1 204.12,0.13z"/>
   <path class="fil2" d="M3854.48 3471.31c-15.53,59.37 -31.05,118.74 -46.56,178.1 -36.99,0.02 -73.98,0.04 -110.96,0.05 -15.53,-59.42 -31.06,-118.85 -46.59,-178.28 68.04,0.05 136.08,0.1 204.12,0.13z"/>
   <path class="fil2" d="M3471.31 3471.31c-15.53,59.37 -31.05,118.74 -46.56,178.1 -36.99,0.02 -73.98,0.04 -110.96,0.05 -15.53,-59.42 -31.06,-118.85 -46.59,-178.28 68.04,0.05 136.08,0.1 204.12,0.13z"/>
   <path class="fil2" d="M3088.13 3471.31c-15.53,59.37 -31.05,118.74 -46.56,178.1 -36.99,0.02 -73.98,0.04 -110.96,0.05 -15.53,-59.42 -31.06,-118.85 -46.59,-178.28 68.04,0.05 136.08,0.1 204.12,0.13z"/>
   <path class="fil2" d="M2704.96 3471.31c-15.53,59.37 -31.05,118.74 -46.56,178.1 -36.99,0.02 -73.98,0.04 -110.96,0.05 -15.53,-59.42 -31.06,-118.85 -46.59,-178.28 68.04,0.05 136.08,0.1 204.12,0.13z"/>
   <path class="fil2" d="M2321.79 3471.31c-15.53,59.37 -31.05,118.74 -46.56,178.1 -36.99,0.02 -73.98,0.04 -110.96,0.05 -15.53,-59.42 -31.06,-118.85 -46.59,-178.28 68.04,0.05 136.08,0.1 204.12,0.13z"/>
  </g>
  <polygon class="fil2" points="1938.62,3471.31 1892.06,3649.41 1781.09,3649.46 1734.5,3471.18 "/>
  <rect class="fil2" x="1442.39" y="2426.02" width="1006.2" height="779.92"/>
  <rect class="fil2" x="3084.16" y="2426.02" width="1326.78" height="779.92"/>
  <path class="fil3" d="M3658.55 1466.31c59.32,-49.08 147.29,-40.79 196.36,18.53 49.08,59.31 40.8,147.29 -18.52,196.36l-834.79 691.83 0 574.85c-105.54,-0.42 -279.27,-49.49 -279.27,-263.85l0 -376.42c0.21,-40.12 17.41,-79.91 50.71,-107.45l885.51 -733.85z"/>
  <path class="fil3" d="M3836.5 1466.31c-59.32,-49.08 -147.29,-40.79 -196.36,18.53 -49.08,59.31 -40.8,147.29 18.52,196.36l834.79 691.83 0 574.85c105.54,-0.42 279.27,-49.49 279.27,-263.85l0 -376.42c-0.21,-40.12 -17.41,-79.91 -50.71,-107.45l-885.51 -733.85z"/>
  <rect class="fil2" x="3192.07" y="1410.89" width="1110.84" height="690.52"/>
 </g>
</svg>
