<?xml version="1.0" encoding="UTF-8"?>
<!DOCTYPE svg PUBLIC "-//W3C//DTD SVG 1.1//EN" "http://www.w3.org/Graphics/SVG/1.1/DTD/svg11.dtd">
<!-- Creator: CorelDRAW -->
<svg xmlns="http://www.w3.org/2000/svg" xml:space="preserve" width="210mm" height="297mm" version="1.1" style="shape-rendering:geometricPrecision; text-rendering:geometricPrecision; image-rendering:optimizeQuality; fill-rule:evenodd; clip-rule:evenodd"
viewBox="0 0 21000 29700"
 xmlns:xlink="http://www.w3.org/1999/xlink"
 xmlns:xodm="http://www.corel.com/coreldraw/odm/2003">
 <defs>
  <style type="text/css">
   <![CDATA[
    .str0 {stroke:white;stroke-width:17.64;stroke-linejoin:round;stroke-miterlimit:22.9256}
    .fil0 {fill:none}
   ]]>
  </style>
 </defs>
 <g id="Слой_x0020_1">
  <metadata id="CorelCorpID_0Corel-Layer"/>
  <path class="fil0 str0" d="M8630.91 16178.28c537.2,179.91 1112.14,277.52 1709.91,277.52 619.99,0 1215.5,-104.84 1769.75,-297.79l686.73 1792.7m-4403.47 -1858.03c-949.86,-368.83 -1769.04,-999.57 -2368.85,-1803.58m7804.21 -7312.03l293.24 -337.62m968.39 -1113.96l-623.88 700.48c-992.17,-845.14 -2246.99,-1391.09 -3624.9,-1498.41m-501.22 -957.25l0 937.78c-791.78,0 -1549.78,144.55 -2249.09,408.67m2249.09 171.71l0 404.93c1921.09,0 3606.91,1006.78 4559.01,2521.4m-9388.16 -2787.39l1313.04 1573.46c2.57,-2.22 5.14,-4.43 7.71,-6.64 0.01,-0.02 0.03,-0.03 0.05,-0.05 0.01,-0.01 0.02,-0.02 0.03,-0.03 0.02,-0.01 0.03,-0.02 0.04,-0.04 797.23,-686.06 1797.76,-1142.42 2898.9,-1266.53m-4680.56 4512.5l-1863.32 -419.49m770.29 5059.81l1784.46 -1009.46c-511.08,-775.32 -832.05,-1782.9 -782.69,-2796.34 69.08,-1418.48 553.47,-2711.69 1449.11,-3673.45m2060.08 8854.33l-615.19 1694.46m-3961.35 -10568.99c798.81,-1391.6 2035.06,-2500.09 3521.22,-3137.76m-116.46 13611.54c-1676.91,-753.98 -3023.52,-2111.74 -3763.06,-3796.48m13135.36 911.72c-775.12,1256.59 -1914.01,2264.89 -3269.84,2878.1m1870.02 -12333.76c1534.47,1361.19 2501.61,3347.76 2501.61,5560.29 0,330.53 -21.59,656.03 -63.42,975.14m-7240.89 -8404.39c852.58,14.18 1670.21,171.95 2429.77,450.18m3716.82 5879.02c-233.94,-1282.02 -858.24,-2472.1 -1734.09,-3364.61m-1836.76 10231.09c978.23,-459.11 1820.52,-1159.8 2450.08,-2025.25m-9182.97 1186.7c1097.8,899.1 2501.46,1438.63 4031.16,1438.63 532.84,0 1050.38,-65.46 1545.04,-188.76m-7325.24 -3505.45c-376.31,-812.61 -586.32,-1717.92 -586.32,-2672.3 0,-1009.4 234.94,-1963.92 653.07,-2811.9m11983.92 3919.56c-135.25,770.96 -409.2,1494.18 -795.2,2142.95l809.74 473.37m-3919.93 1110.78c1786.2,-875.44 3016.12,-2711.4 3016.12,-4834.76 0,-280.88 -21.52,-556.74 -63,-826.01l851.23 -130.72m249.14 -38.26l925.27 -142.09m5.61 2111.02c5.92,0 11.73,0.42 17.43,1.2 61.34,8.49 108.58,61.13 108.58,124.81 0,69.6 -56.41,126.01 -126.01,126.01 -69.6,0 -126.02,-56.41 -126.02,-126.01 0,-54.15 34.16,-100.32 82.1,-118.15 13.68,-5.08 28.47,-7.86 43.92,-7.86zm-955.64 2687.63c69.6,0 126.02,56.42 126.02,126.01 0,69.6 -56.42,126.02 -126.02,126.02 -23.9,0 -46.26,-6.67 -65.3,-18.23 -8.98,-5.45 -17.21,-11.98 -24.52,-19.42 -22.38,-22.75 -36.19,-53.93 -36.19,-88.37 0,-23.2 6.28,-44.93 17.21,-63.6 21.02,-35.89 59.3,-60.43 103.43,-62.29 1.79,-0.07 3.57,-0.12 5.37,-0.12zm-1168.83 -149.02c69.6,0 126.01,56.42 126.01,126.02 0,69.6 -56.41,126.01 -126.01,126.01 -27.28,0 -52.55,-8.67 -73.17,-23.4 -8.54,-6.09 -16.25,-13.22 -23.01,-21.21 -18.6,-21.96 -29.84,-50.36 -29.84,-81.4 0,-69.6 56.42,-126.02 126.02,-126.02zm-2281.56 3185.94c37.74,0 71.61,16.59 94.7,42.88 8.38,9.53 15.34,20.34 20.55,32.1 6.92,15.61 10.76,32.87 10.76,51.04 0,69.59 -56.42,126.01 -126.01,126.01 -69.6,0 -126.02,-56.42 -126.02,-126.01 0,-69.6 56.42,-126.02 126.02,-126.02zm-356.3 -1005.61c41.11,0 77.62,19.68 100.62,50.14 5.47,7.23 10.17,15.08 13.99,23.41 7.33,15.97 11.41,33.74 11.41,52.46 0,69.6 -56.42,126.01 -126.02,126.01 -69.59,0 -126.01,-56.41 -126.01,-126.01 0,-69.6 56.42,-126.01 126.01,-126.01zm-335.78 -929.84c28.65,0 55.08,9.56 76.24,25.68 15.88,12.08 28.81,27.86 37.5,46.04 7.87,16.44 12.28,34.85 12.28,54.29 0,69.6 -56.42,126.02 -126.02,126.02 -69.59,0 -126.01,-56.42 -126.01,-126.02 0,-69.59 56.42,-126.01 126.01,-126.01zm250.23 2104.76c69.6,0 126.01,56.42 126.01,126.01 0,69.6 -56.41,126.02 -126.01,126.02 -69.6,0 -126.02,-56.42 -126.02,-126.02 0,-53.71 33.61,-99.55 80.93,-117.7l0.5 -0.18c13.86,-5.24 28.89,-8.13 44.59,-8.13zm-834.54 -847.78c69.59,0 126.01,56.42 126.01,126.02 0,69.59 -56.42,126.01 -126.01,126.01 -58.65,0 -107.94,-40.05 -121.99,-94.3 -2.63,-10.13 -4.03,-20.76 -4.03,-31.71 0,-9.06 0.96,-17.87 2.78,-26.39 12.13,-56.92 62.69,-99.63 123.24,-99.63zm-4197.25 847.78c15.11,0 29.6,2.66 43.02,7.54l0.53 0.19c48.13,17.72 82.47,64 82.47,118.28 0,69.6 -56.42,126.02 -126.02,126.02 -69.59,0 -126.01,-56.42 -126.01,-126.02 0,-69.59 56.42,-126.01 126.01,-126.01zm-398.23 -162.86c69.6,0 126.01,56.42 126.01,126.01 0,69.6 -56.41,126.02 -126.01,126.02 -69.6,0 -126.01,-56.42 -126.01,-126.02 0,-18.08 3.81,-35.27 10.67,-50.82 7.13,-16.16 17.55,-30.53 30.42,-42.28 22.39,-20.45 52.2,-32.91 84.92,-32.91zm-1199.44 -1983.83c69.59,0 126.01,56.41 126.01,126.01 0,8.79 -0.9,17.37 -2.62,25.65 -4.27,20.67 -13.61,39.49 -26.66,55.11 -23.11,27.65 -57.88,45.26 -96.73,45.26 -69.6,0 -126.02,-56.42 -126.02,-126.02 0,-69.6 56.42,-126.01 126.02,-126.01zm2298.89 215.28c69.59,0 126.01,56.42 126.01,126.01 0,14.46 -2.44,28.34 -6.92,41.28 -17.09,49.32 -63.96,84.74 -119.09,84.74 -12.28,0 -24.14,-1.77 -35.35,-5.04 -2.59,-0.76 -5.15,-1.58 -7.66,-2.5 -48.42,-17.58 -83.01,-63.99 -83.01,-118.48 0,-15.6 2.85,-30.53 8.03,-44.32 17.94,-47.73 63.99,-81.69 117.99,-81.69zm-2561.12 -1949.7c69.6,0 126.02,56.41 126.02,126.01 0,12.9 -1.94,25.33 -5.54,37.05 -8.07,26.28 -24.51,48.9 -46.2,64.75 -20.83,15.23 -46.5,24.22 -74.28,24.22 -69.6,0 -126.01,-56.42 -126.01,-126.02 0,-69.6 56.41,-126.01 126.01,-126.01zm-1335.99 -326.57c3.1,0 6.18,0.12 9.23,0.34 65.28,4.73 116.78,59.18 116.78,125.68 0,69.59 -56.42,126.01 -126.01,126.01 -69.6,0 -126.02,-56.42 -126.02,-126.01 0,-50.24 29.4,-93.6 71.93,-113.84 16.39,-7.8 34.73,-12.18 54.09,-12.18zm-1130.53 81.74c69.59,0 126.01,56.41 126.01,126.01 0,34.94 -14.22,66.56 -37.2,89.39 -11.15,11.07 -24.37,20.08 -39.02,26.39 -15.27,6.59 -32.11,10.23 -49.79,10.23 -69.6,0 -126.02,-56.41 -126.02,-126.01 0,-69.6 56.42,-126.01 126.02,-126.01zm-419.58 -4149.57c69.6,0 126.02,56.42 126.02,126.01 0,9.47 -1.05,18.7 -3.04,27.57l-0.02 0.12c-12.61,56.28 -62.87,98.33 -122.96,98.33 -69.59,0 -126.01,-56.42 -126.01,-126.02 0,-69.59 56.42,-126.01 126.01,-126.01zm765.78 -2302.17c22.5,0 43.61,5.89 61.89,16.23 13.55,7.65 25.56,17.74 35.4,29.68 17.95,21.77 28.73,49.68 28.73,80.1 0,69.6 -56.42,126.01 -126.02,126.01 -69.59,0 -126.01,-56.41 -126.01,-126.01 0,-69.6 56.42,-126.01 126.01,-126.01zm853.82 659.47c69.6,0 126.02,56.42 126.02,126.01 0,69.6 -56.42,126.02 -126.02,126.02l-1.33 -0.02c-19.96,-0.2 -38.8,-5.05 -55.5,-13.5 -41.04,-20.78 -69.18,-63.35 -69.18,-112.5 0,-69.59 56.42,-126.01 126.01,-126.01zm1811.5 -840.24c69.6,0 126.02,56.42 126.02,126.01 0,69.6 -56.42,126.02 -126.02,126.02 -4.8,0 -9.55,-0.28 -14.2,-0.81 -28.09,-3.14 -53.37,-15.52 -72.77,-34.02 -24.05,-22.95 -39.04,-55.32 -39.04,-91.19 0,-69.59 56.41,-126.01 126.01,-126.01zm3361.13 -1595.09c69.59,0 126.01,56.42 126.01,126.01 0,69.6 -56.42,126.02 -126.01,126.02 -52.09,0 -96.78,-31.61 -115.98,-76.68 -4.88,-11.45 -8.12,-23.75 -9.41,-36.63 -0.42,-4.18 -0.63,-8.42 -0.63,-12.71 0,-69.59 56.42,-126.01 126.02,-126.01zm-1882.57 -552.42c53.48,0 99.18,33.32 117.47,80.32 2.75,7.06 4.87,14.42 6.31,22.02 1.47,7.67 2.24,15.58 2.24,23.67 0,69.6 -56.42,126.02 -126.02,126.02 -69.6,0 -126.01,-56.42 -126.01,-126.02 0,-69.59 56.41,-126.01 126.01,-126.01zm-444.54 -967.99c69.6,0 126.02,56.42 126.02,126.01 0,69.6 -56.42,126.02 -126.02,126.02 -42.38,0 -79.86,-20.92 -102.71,-52.99 -5.36,-7.53 -9.9,-15.68 -13.52,-24.3 -6.3,-14.99 -9.78,-31.45 -9.78,-48.73 0,-69.59 56.42,-126.01 126.01,-126.01zm2811.1 -550.17c69.59,0 126.01,56.42 126.01,126.02l-0.02 1.05c-0.05,6.58 -0.6,13.05 -1.63,19.36 -9.71,59.52 -61.12,105.05 -123.28,105.58l-1.08 0.02c-69.6,0 -126.02,-56.42 -126.02,-126.01 0,-69.6 56.42,-126.02 126.02,-126.02zm375.5 1074.68c69.59,0 126.01,56.42 126.01,126.02 0,2.89 -0.11,5.75 -0.29,8.58 -0.91,13.47 -3.93,26.33 -8.73,38.31 -18.61,46.36 -63.98,79.12 -116.99,79.12 -69.6,0 -126.02,-56.42 -126.02,-126.01 0,-69.6 56.42,-126.02 126.02,-126.02zm-375.5 443.48c69.59,0 126.01,56.42 126.01,126.01 0,68.88 -55.24,124.83 -123.84,125.99l-2.17 0.03c-69.6,0 -126.02,-56.42 -126.02,-126.02 0,-69.59 56.42,-126.01 126.02,-126.01zm2673.73 -1022.57c69.6,0 126.01,56.42 126.01,126.01 0,69.6 -56.41,126.02 -126.01,126.02 -69.6,0 -126.01,-56.42 -126.01,-126.02 0,-7.87 0.73,-15.57 2.11,-23.04 1.36,-7.35 3.35,-14.47 5.93,-21.31 17.94,-47.7 63.99,-81.66 117.97,-81.66zm2160.07 1291.51c69.6,0 126.02,56.42 126.02,126.01 0,31.76 -11.74,60.76 -31.13,82.92 -11.59,13.26 -25.92,24.06 -42.1,31.53 -16.06,7.41 -33.94,11.57 -52.79,11.57 -31.89,0 -61,-11.86 -83.19,-31.38l-0.61 -0.54c-25.9,-23.08 -42.21,-56.68 -42.21,-94.1 0,-69.59 56.42,-126.01 126.01,-126.01zm-384.49 1089.51c69.6,0 126.02,56.42 126.02,126.02 0,34.76 -14.09,66.23 -36.84,89.03 -8.83,8.84 -18.98,16.39 -30.11,22.3 -17.62,9.37 -37.72,14.68 -59.07,14.68 -69.59,0 -126.01,-56.42 -126.01,-126.01 0,-69.6 56.42,-126.02 126.01,-126.02zm-585.07 23.41c69.59,0 126.01,56.42 126.01,126.01 0,69.6 -56.42,126.02 -126.01,126.02 -31.07,0 -59.5,-11.24 -81.47,-29.88l-1.16 -1c-26.58,-23.1 -43.39,-57.16 -43.39,-95.14 0,-69.59 56.42,-126.01 126.02,-126.01zm760.74 1777.87c69.59,0 126.01,56.41 126.01,126.01 0,69.6 -56.42,126.02 -126.01,126.02 -69.6,0 -126.02,-56.42 -126.02,-126.02 0,-22.69 6.01,-43.98 16.5,-62.37 10.52,-18.41 25.53,-33.92 43.55,-45.01 19.19,-11.81 41.79,-18.63 65.97,-18.63zm1669.02 1776.56c63.09,0 115.35,46.38 124.57,106.88 0.95,6.25 1.44,12.63 1.44,19.13 0,69.6 -56.41,126.02 -126.01,126.02 -63.09,0 -115.35,-46.38 -124.57,-106.89 -0.95,-6.24 -1.44,-12.62 -1.44,-19.13 0,-51.58 30.98,-95.9 75.35,-115.41 9.22,-4.05 19.03,-7.03 29.24,-8.78 6.96,-1.19 14.12,-1.82 21.42,-1.82zm-2.96 1959.18c69.59,0 126.01,56.42 126.01,126.02 0,65.1 -49.36,118.65 -112.68,125.31 -4.38,0.46 -8.83,0.7 -13.33,0.7 -7.01,0 -13.88,-0.57 -20.57,-1.68 -59.81,-9.81 -105.45,-61.74 -105.45,-124.33 0,-69.6 56.42,-126.02 126.02,-126.02z"/>
 </g>
</svg>
