<?xml version="1.0" encoding="UTF-8"?>
<!DOCTYPE svg PUBLIC "-//W3C//DTD SVG 1.1//EN" "http://www.w3.org/Graphics/SVG/1.1/DTD/svg11.dtd">
<!-- Creator: CorelDRAW -->
<svg xmlns="http://www.w3.org/2000/svg" xml:space="preserve" width="297mm" height="210mm" version="1.1" style="shape-rendering:geometricPrecision; text-rendering:geometricPrecision; image-rendering:optimizeQuality; fill-rule:evenodd; clip-rule:evenodd"
viewBox="0 0 29700 21000"
 xmlns:xlink="http://www.w3.org/1999/xlink"
 xmlns:xodm="http://www.corel.com/coreldraw/odm/2003">
 <defs>
  <style type="text/css">
   <![CDATA[
    .fil0 {fill:none}
    .fil17 {fill:#3986BC}
    .fil16 {fill:#C4D8E2}
    .fil8 {fill:#60AFDD}
    .fil12 {fill:#008ED6}
    .fil6 {fill:#82C6E2}
    .fil2 {fill:#51B5E0}
    .fil20 {fill:#005B99}
    .fil9 {fill:#BAE0E2}
    .fil3 {fill:#51BFE2}
    .fil13 {fill:#0084C9}
    .fil19 {fill:#00709E}
    .fil14 {fill:#A5DDE2}
    .fil1 {fill:#70CEE2}
    .fil11 {fill:#72D1DD}
    .fil15 {fill:#C9E8DD}
    .fil5 {fill:#8CCCD3}
    .fil7 {fill:#99D6DD}
    .fil4 {fill:#6BC9DB}
    .fil10 {fill:#0091C9}
    .fil18 {fill:#0077BF}
   ]]>
  </style>
 </defs>
 <g id="Слой_x0020_1">
  <metadata id="CorelCorpID_0Corel-Layer"/>
  <polygon class="fil0" points="11806.34,8278.67 11873.83,8046.7 11872.17,7977.29 11935.1,7950.05 11882.5,7838.28 11660.85,7773.48 11619.52,7650.44 11364.99,7598.78 11399.74,7496.41 11257.92,7443.81 11231.62,7344.25 11312.39,7337.67 11425.1,7232.48 11541.57,7254.09 11695.6,7117.89 11574.43,6829.56 11713.44,6708.4 11718.14,6620.11 11950.13,6616.35 12008.36,6671.77 12220.62,6671.77 12231.89,6560.94 11846.81,6389.06 11867.47,6285.75 12013.05,6267.91 12028.62,6194.51 11723.77,6129.84 11883.44,6024.64 11784.82,5959.84 11817.69,5884.7 11879.68,5886.58 11897.53,5837.74 12010.23,5830.23 12056.25,5909.12 12149.24,5889.4 12195.26,5928.85 12265.7,5926.97 12287.3,5892.22 12427.25,5900.67 12455.42,5968.29 12556.86,5829.29 12731.56,5837.74 12770.07,5772.93 12911.89,5780.45 13018.95,5738.18 13113.82,5793.59 13137.3,5703.43 13426.58,5649.9 13505.48,5695.92 13593.76,5648.96 13678.29,5703.43 13710.42,5557.79 13798.51,5532.5 13840.78,5478.96 13933.76,5491.17 14042.7,5395.89 14046.45,5478.96 14508.55,5358.32 14662.58,5285.06 14769.65,5324.33 14874.84,5204.28 14988.5,5239.98 15032.63,5155.45 15030.75,5055.89 15158.49,5061.52 15224.24,4924.4 15310.64,4952.58 15301.25,4826.72 15434.62,4930.03 15485.34,4890.59 15643.13,4915.01 15761.47,5020.2 15887.32,5040.86 15971.85,4933.79 16140.91,4939.43 16225.45,5082.19 16232.96,5273.79 16338.15,5377.1 16291.19,5446.6 16308.09,5510.47 16360.69,5625.06 16246.97,5655.11 16338.15,5805.39 16428.32,5735.88 16490.31,5805.39 16559.81,5797.88 16595.5,5688.92 16760.8,5690.81 16766.43,5613.79 16834.06,5581.85 16897.92,5658.87 16903.56,5777.21 16871.63,5889.91 16935.49,5929.37 17001.24,5871.14 17023.78,5749.04 17128.98,5741.52 17187.21,5831.68 17376.93,5842.96 17487.76,5730.25 17495.27,5931.24 17371.29,5961.3 17271.74,6105.94 17382.56,6143.51 17404.95,6232.04 17471.53,6142.97 17531.53,6088.58 17620.61,6050.14 17688.11,6104.52 17796.88,6128.9 17835.32,6027.63 17911.27,6011.69 17925.33,5917.94 18003.15,5843.86 18089.41,5902.94 18238.49,5750.11 18229.12,5668.53 18331.32,5651.65 18531.96,5504.44 18550.71,5417.25 18690.42,5413.5 18793.56,5326.3 18836.69,5369.43 18814.18,5464.12 18789.81,5526.95 18664.17,5544.77 18705.42,5646.02 19375.81,6089.52 20305.16,7244.1 20686.48,7741.89 20767.25,7830.18 20902.5,7651.72 20851.78,7462 20962.61,7460.13 20960.73,7353.06 21086.59,7373.72 21129.79,7424.43 21240.62,7398.13 21206.81,7601.01 21377.75,7576.59 21402.17,7702.45 21503.6,7698.69 21539.3,7642.34 21700.84,7670.51 21871.78,7631.07 21941.28,7606.65 22025.81,7465.76 22108.46,7456.37 22193.62,7348.67 22382.72,7339.9 22561.16,7413.16 22709.56,7529.63 22807.24,7663 22827.9,7796.37 23209.23,7832.06 23218.62,7980.36 23333.21,8040.56 23408.34,8153.27 23515.41,8130.73 23599.94,8080.02 23643.15,8138.25 23742.7,8087.53 23789.66,8158.91 23876.08,8111.95 23954.97,8023.66 24005.68,7867.74 24047.01,7809.51 24139.06,7835.81 24144.7,7927.86 24101.48,8004.87 24204.8,8018.02 24373.86,8166.42 24495.96,8166.42 24541.04,8250.95 24400.16,8275.37 24263.03,8399.35 24264.91,8478.24 24319.39,8534.6 24298.73,8748.73 24127.78,8915.92 23879.83,9013.6 23864.81,9389.29 24054.53,9873.93 23988.78,10050.49 23864.81,10091.82 23695.74,10296.57 23598.07,10183.87 23160.39,10289.06 22812.88,10198.89 22733.98,10228.95 22760.28,10416.8 22607.68,11514.47 22612.38,11598.06 22815.25,11592.42 22818.07,11861.04 22680.94,11786.84 22486.52,11895.79 22425.47,11882.64 22373.82,11779.32 22285.53,11757.73 21998.13,11989.71 21558.58,12138.11 21419.57,12276.17 21459.02,12328.77 21548.24,12337.22 21631.83,12301.53 21783.05,12351.31 21732.33,12436.78 21787.74,12878.22 22040.39,13236.06 22055.42,13282.08 22048.85,13396.67 22126.8,13438.93 22149.34,13533.79 21981.23,13634.29 22053.54,13750.76 21892.94,13861.58 21869.46,14004.34 21994.37,14333.07 21745.48,14161.19 21475.92,14164.01 21334.1,13979.92 21162.22,13984.62 20908.63,13926.38 20249.3,14019.37 20110.3,13964.89 19759.02,14074.79 19346.63,14055.94 19352.26,14174.28 18800,14095.39 18583.98,13952.62 18379.24,13945.11 18362.32,14040.91 18185.75,14134.81 18120.01,14484.22 18161.33,14533.06 18153.82,14585.66 18058.02,14600.69 18022.33,14518.04 17789.4,14519.92 17462.55,14373.4 17011.72,14392.19 16840.79,14516.16 16827.64,14617.6 16628.48,14842.94 16577.75,14970.71 16476.32,14936.9 16252.78,15199.88 16049.91,15261.86 15854.56,15438.44 15679.86,15506.07 15683.62,15652.58 15445.05,15844.19 15435.66,16101.53 15093.79,15941.86 15152.02,15872.36 15146.39,15759.66 15076.88,15729.6 15043.07,15665.73 14674.89,15708.93 14509.59,15705.17 14334.9,15686.4 14235.34,15072.14 13964.85,15060.87 13973.21,14841.06 14013.59,14295.37 13873.65,14380.84 13686.75,14029.57 13566.53,13998.58 13373.99,13742.18 13114.76,13868.03 12448.86,13787.25 11739.75,13852.06 11292.68,13299.8 11284.22,13162.67 10003.04,12131.36 9001.78,12300.38 8584.77,12405.57 8207.21,15181.91 7929.2,15187.55 7679.37,14684.12 7322.46,14300.93 6800.26,14278.38 6604.9,14327.22 6270.54,14563.91 6278.06,14317.83 6441.48,14086.78 6526.01,13923.35 6497.83,13791.86 6285.57,13758.05 6249.88,13669.77 6092.09,13684.79 6015.07,13403.03 5808.45,13376.73 5836.23,13157.24 5690.1,12704.25 5693.86,12510.77 5445.91,12390.55 5444.23,12208.95 5496.63,12168.89 5830.99,12238.4 5872.31,12324.8 5986.9,12349.23 6043.25,12277.84 5973.75,12140.71 5872.31,12044.92 5930.24,11953.16 6054.52,11943.48 6069.55,11840.16 6195.4,11718.04 6257.39,11757.51 6400.15,11682.37 6460.26,11765.03 6698.83,11793.2 6856.61,11847.68 7018.15,11943.48 7151.52,11937.85 6926.12,11718.04 6939.26,11639.17 7164.62,11391.19 7236,11252.18 7239.76,11128.21 7209.7,11023.02 7292.35,10932.85 7266.05,10718.71 7108.27,10658.6 6984.29,10594.73 6800.21,10699.92 6565.63,10530.71 6350.27,10402.84 6015.02,10441.08 5552.93,10666.11 5335.03,10594.73 5214.81,10737.49 4839.13,10441.08 4959.35,10350.53 5075.81,10441.08 5188.51,10384.35 5098.35,10027.45 4970.62,9655.51 4884.21,9557.85 4703.88,9475.19 4613.71,9396.29 4497.25,9456.4 4425.87,9366.23 4470.95,9309.89 4422.12,9219.72 4482.22,9159.61 4493.49,9043.15 4583.65,9061.94 4226.75,8836.53 4467.19,8449.57 4587.41,8449.57 4658.79,8333.1 4561.11,8160.29 4711.39,7777.09 4850.39,7784.6 4963.09,7705.71 4981.88,7585.49 5150.94,7454 5421.43,7987.48 5646.84,7968.69 5710.71,7893.56 5654.36,7825.93 5680.65,7427.71 5804.63,7484.05 5958.66,7345.05 6123.97,7371.35 6078.88,7269.92 6169.04,7153.45 6296.77,7221.07 6454.56,7115.88 6649.92,7119.64 6773.9,6894.23 6882.85,6969.37 6894.12,6796.55 7003.06,6928.04 7100.75,6894.23 7138.31,6973.12 7066.94,7089.58 7202.18,7074.56 7247.27,7160.97 7397.54,7006.94 7483.95,7067.04 7607.92,6950.58 7692.18,7248.05 8036.2,7266.16 8141.39,7363.83 8143.43,7508.15 8291.67,7525.38 8378.08,7664.38 8396.86,7777.09 8468.24,7825.93 8586.69,7724.53 8785.81,7859.78 8782.05,7957.46 8889.12,8068.28 8958.62,8060.77 9028.13,8177.2 9292.99,8045.75 9289.23,7921.77 9370,7963.09 9492.1,7841 9563.48,7912.38 9613.01,7839.95 9818.95,7852.26 9897.85,8057.01 9976.74,8002.54 10050,8034.48 10123.26,7899.22 10245.35,7942.43 10363.7,7895.47 10478.29,8019.45 10465.13,8120.88 10604.14,8274.92 10893.42,8335.03 10882.15,8421.43 11013.64,8428.95 11139.5,8199.78 11319.82,8336.9 11522.7,8365.08 "/>
  <polygon class="fil1" points="13022.69,11773.27 13578.32,9638.96 14160.4,12029.04 "/>
  <polygon class="fil2" points="14160.4,12029.04 14429.4,9361.15 13578.32,9638.96 "/>
  <polygon class="fil3" points="15346.62,10194.59 14429.4,9361.15 14160.4,12029.04 "/>
  <polygon class="fil4" points="15346.62,10194.59 14804.22,13276.99 14160.4,12029.04 "/>
  <polygon class="fil5" points="13190.26,13157.93 14160.4,12029.04 14804.22,13276.99 "/>
  <polygon class="fil6" points="13190.26,13157.93 13022.69,11773.27 14160.4,12029.04 "/>
  <polygon class="fil7" points="14804.22,13276.99 17344.2,12245.11 15346.62,10194.59 "/>
  <polygon class="fil3" points="11598.29,13276.99 13022.69,11773.27 13190.26,13157.93 "/>
  <polygon class="fil6" points="13022.69,11773.27 9675.64,11314.62 11598.29,13276.99 "/>
  <polygon class="fil2" points="13022.69,11773.27 10028.42,8377.73 13578.32,9638.96 "/>
  <polygon class="fil8" points="10028.42,8377.73 9675.64,11314.62 13022.69,11773.27 "/>
  <polygon class="fil9" points="16537.18,13845.78 17344.2,12245.11 14804.22,13276.99 "/>
  <polygon class="fil10" points="18742.04,9638.96 15346.62,10194.59 15505.3,8201.31 "/>
  <polygon class="fil11" points="17344.2,12245.11 18742.04,9638.96 15346.62,10194.59 "/>
  <polygon class="fil4" points="17344.2,12245.11 20435.38,11570.35 18742.04,9638.96 "/>
  <polygon class="fil10" points="15505.3,8201.31 14429.4,9361.15 15346.62,10194.59 "/>
  <polygon class="fil12" points="18742.04,9638.96 18283.45,7716.24 15505.3,8201.31 "/>
  <polygon class="fil10" points="18742.04,9638.96 19712.21,9550.69 18283.45,7716.24 "/>
  <polygon class="fil13" points="19712.21,9550.69 20391.1,7356.3 18283.45,7716.24 "/>
  <polygon class="fil2" points="20435.38,11570.35 19712.21,9550.69 18742.04,9638.96 "/>
  <polygon class="fil10" points="20435.38,11570.35 22472.69,10075.5 22234.56,9361.15 "/>
  <polygon class="fil8" points="22234.56,9361.15 19712.21,9550.69 20435.38,11570.35 "/>
  <polygon class="fil10" points="10028.42,8377.73 8467.4,11041.15 9675.64,11314.62 "/>
  <polygon class="fil10" points="7506.08,9361.15 10028.42,8377.73 8467.4,11041.15 "/>
  <polygon class="fil14" points="14804.22,13276.99 15854.56,15438.44 16049.91,15261.86 16252.78,15199.88 16364.55,15068.39 16537.18,13845.78 "/>
  <polygon class="fil9" points="14804.22,13276.99 13998.33,14501.54 13964.85,15060.87 14235.34,15072.14 14334.9,15686.4 14674.89,15708.93 15043.07,15665.73 15076.88,15729.6 15146.39,15759.66 15152.02,15872.36 15093.79,15941.86 15435.66,16101.53 15445.05,15844.19 15683.62,15652.58 15679.86,15506.07 15854.56,15438.44 "/>
  <polygon class="fil14" points="13998.33,14501.54 14804.22,13276.99 13190.26,13157.93 13373.99,13742.18 13566.53,13998.58 13686.75,14029.57 13873.65,14380.84 14013.59,14295.37 "/>
  <polygon class="fil15" points="16537.18,13845.78 16368.2,15042.47 16476.32,14936.9 16577.75,14970.71 16628.48,14842.94 16827.64,14617.6 16840.79,14516.16 17011.72,14392.19 17311.16,14379.7 "/>
  <polygon class="fil16" points="13373.99,13742.18 13190.26,13157.93 11598.29,13276.99 11739.75,13852.06 12448.86,13787.25 13103.48,13866.66 "/>
  <polygon class="fil1" points="11598.29,13276.99 11292.68,13299.8 11739.75,13852.06 "/>
  <polygon class="fil9" points="17344.2,12245.11 19759.02,14074.79 19346.63,14055.94 19352.26,14174.28 18800,14095.39 18583.98,13952.62 18379.24,13945.11 18362.32,14040.91 18185.75,14134.81 18120.01,14484.22 18161.33,14533.06 18153.82,14585.66 18058.02,14600.69 18022.33,14518.04 17789.4,14519.92 17462.55,14373.4 17311.16,14379.7 16537.18,13845.78 "/>
  <polygon class="fil14" points="19759.02,14074.79 20110.3,13964.89 20435.38,11570.35 17344.2,12245.11 "/>
  <polygon class="fil9" points="20435.38,11570.35 21958.87,12002.96 21558.58,12138.11 21419.57,12276.17 21459.02,12328.77 21548.24,12337.22 21631.83,12301.53 21783.05,12351.31 21732.33,12436.78 21787.74,12878.22 22040.39,13236.06 22055.42,13282.08 22048.85,13396.67 22126.8,13438.93 22149.34,13533.79 21981.23,13634.29 22053.54,13750.76 21892.94,13861.58 21869.46,14004.34 21994.37,14333.07 21745.48,14161.19 21475.92,14164.01 21334.1,13979.92 21162.22,13984.62 20908.63,13926.38 20249.3,14019.37 20110.3,13964.89 "/>
  <polygon class="fil2" points="22472.69,10075.5 21958.87,12002.96 20435.38,11570.35 "/>
  <polygon class="fil4" points="21958.87,12002.96 22472.69,10075.5 22733.98,10228.95 22760.28,10416.8 22607.68,11514.47 22612.38,11598.06 22815.25,11592.42 22818.07,11861.04 22680.94,11786.84 22486.52,11895.79 22425.47,11882.64 22373.82,11779.32 22285.53,11757.73 "/>
  <polygon class="fil13" points="14429.4,9361.15 12502.09,7716.24 15505.3,8201.31 "/>
  <polygon class="fil12" points="12502.09,7716.24 13581.04,9650.12 14429.4,9361.15 "/>
  <polygon class="fil12" points="4346.97,8643.05 6487.22,9310.26 5125.95,10136.72 5098.35,10027.45 4970.62,9655.51 4884.21,9557.85 4703.88,9475.19 4613.71,9396.29 4497.25,9456.4 4425.87,9366.23 4470.95,9309.89 4422.12,9219.72 4482.22,9159.61 4493.49,9043.15 4583.65,9061.94 4226.75,8836.53 "/>
  <polygon class="fil8" points="6487.22,9310.26 6350.27,10402.84 6015.02,10441.08 5552.93,10666.11 5335.03,10594.73 5214.81,10737.49 4839.13,10441.08 4959.35,10350.53 5075.81,10441.08 5188.51,10384.35 5125.95,10136.72 "/>
  <polygon class="fil17" points="6487.22,9310.26 5710.71,7893.56 5646.84,7968.69 5421.43,7987.48 5150.94,7454 4981.88,7585.49 4963.09,7705.71 4850.39,7784.6 4711.39,7777.09 4561.11,8160.29 4658.79,8333.1 4587.41,8449.57 4467.19,8449.57 4346.97,8643.05 "/>
  <polygon class="fil13" points="6487.22,9310.26 8036.2,7266.16 7692.18,7248.05 7607.92,6950.58 7483.95,7067.04 7397.54,7006.94 7247.27,7160.97 7202.18,7074.56 7066.94,7089.58 7138.31,6973.12 7100.75,6894.23 7003.06,6928.04 6894.12,6796.55 6882.85,6969.37 6773.9,6894.23 6649.92,7119.64 6454.56,7115.88 6296.77,7221.07 6169.04,7153.45 6078.88,7269.92 6123.97,7371.35 5958.66,7345.05 5804.63,7484.05 5680.65,7427.71 5654.36,7825.93 5710.71,7893.56 "/>
  <polygon class="fil12" points="10028.42,8377.73 6487.22,9310.26 8036.2,7266.16 8141.39,7363.83 8143.43,7508.15 8291.67,7525.38 8378.08,7664.38 8396.86,7777.09 8468.24,7825.93 8586.69,7724.53 8785.81,7859.78 8782.05,7957.46 8889.12,8068.28 8958.62,8060.77 9028.13,8177.2 9292.99,8045.75 9289.23,7921.77 9370,7963.09 9492.1,7841 9563.48,7912.38 9613.01,7839.95 9818.95,7852.26 9897.85,8057.01 9976.74,8002.54 10050,8034.48 10123.26,7899.22 10245.35,7942.43 10363.7,7895.47 10478.29,8019.45 10465.13,8120.88 "/>
  <polygon class="fil0" points="10028.42,8377.73 9897.85,8057.01 9976.74,8002.54 10050,8034.48 10123.26,7899.22 10245.35,7942.43 10363.7,7895.47 10478.29,8019.45 10465.13,8120.88 "/>
  <polygon class="fil10" points="7506.08,9361.15 6487.22,9310.26 6350.27,10402.84 "/>
  <polygon class="fil10" points="22234.56,9361.15 23988.78,10050.49 23864.81,10091.82 23695.74,10296.57 23598.07,10183.87 23160.39,10289.06 22812.88,10198.89 22733.98,10228.95 22472.69,10075.5 "/>
  <polygon class="fil10" points="22234.56,9361.15 24319.39,8534.6 24298.73,8748.73 24127.78,8915.92 23879.83,9013.6 23864.81,9389.29 24054.53,9873.93 23988.78,10050.49 "/>
  <polygon class="fil13" points="22234.56,9361.15 23018.56,7814.21 23209.23,7832.06 23218.62,7980.36 23333.21,8040.56 23408.34,8153.27 23557.67,8105.37 23599.94,8080.02 23643.15,8138.25 23742.7,8087.53 23789.66,8158.91 23876.08,8111.95 23954.97,8023.66 24005.68,7867.74 24047.01,7809.51 24139.06,7835.81 24144.7,7927.86 24101.48,8004.87 24204.8,8018.02 24373.86,8166.42 24495.96,8166.42 24541.04,8250.95 24400.16,8275.37 24263.03,8399.35 24264.91,8478.24 24319.39,8534.6 "/>
  <polygon class="fil12" points="22234.56,9361.15 21206.81,7601.01 21377.75,7576.59 21402.17,7702.45 21503.6,7698.69 21539.3,7642.34 21700.84,7670.51 21941.28,7606.65 22025.81,7465.76 22108.46,7456.37 22193.62,7348.67 22382.72,7339.9 22561.16,7413.16 22709.56,7529.63 22807.24,7663 22827.9,7796.37 23018.56,7814.21 "/>
  <polygon class="fil10" points="21206.81,7601.01 19712.21,9550.69 22234.56,9361.15 "/>
  <polygon class="fil10" points="20391.1,7356.3 20767.25,7830.18 20902.5,7651.72 20851.78,7462 20962.61,7460.13 20960.73,7353.06 21086.59,7373.72 21129.79,7424.43 21240.62,7398.13 21206.81,7601.01 19712.21,9550.69 "/>
  <polygon class="fil18" points="18283.45,7716.24 19375.81,6089.52 20391.1,7356.3 "/>
  <polygon class="fil7" points="8467.4,11041.15 8793.27,12352.97 8584.77,12405.57 8377.84,13927.16 6567.52,13216.06 "/>
  <polygon class="fil14" points="6567.52,13216.06 7322.46,14300.93 7679.37,14684.12 7929.2,15187.55 8207.21,15181.91 8377.84,13927.16 "/>
  <polygon class="fil14" points="6567.52,13216.06 6015.07,13403.03 6092.09,13684.79 6249.88,13669.77 6285.57,13758.05 6454.94,13785.02 6497.83,13791.86 6526.01,13923.35 6441.48,14086.78 6278.06,14317.83 6270.54,14563.91 6604.9,14327.22 6800.26,14278.38 7322.46,14300.93 "/>
  <polygon class="fil6" points="6567.52,13216.06 6054.52,11943.48 5930.24,11953.16 5872.31,12044.92 5973.75,12140.71 6043.25,12277.84 5986.9,12349.23 5872.31,12324.8 5830.99,12238.4 5496.63,12168.89 5444.23,12208.95 5445.91,12390.55 5693.86,12510.77 5690.1,12704.25 5836.23,13157.24 5808.45,13376.73 6015.07,13403.03 "/>
  <polygon class="fil2" points="6054.52,11943.48 6567.52,13216.06 8467.4,11041.15 6926.12,11718.04 7151.52,11937.85 7018.15,11943.48 6856.61,11847.68 6698.83,11793.2 6460.26,11765.03 6400.15,11682.37 6257.39,11757.51 6195.4,11718.04 6069.55,11840.16 "/>
  <polygon class="fil7" points="9675.64,11314.62 11598.29,13276.99 11292.68,13299.8 11284.22,13162.67 "/>
  <polygon class="fil14" points="10003.04,12131.36 11244.76,13130.9 9675.64,11314.62 "/>
  <polygon class="fil1" points="8467.4,11041.15 10003.04,12131.36 9675.64,11314.62 "/>
  <polygon class="fil6" points="8467.4,11041.15 10003.04,12131.36 9001.78,12300.38 8793.27,12352.97 "/>
  <polygon class="fil18" points="15505.3,8201.31 15038.57,7533.01 12807.24,6668.7 "/>
  <polygon class="fil19" points="15505.3,8201.31 16074.21,6089.52 18283.45,7716.24 "/>
  <polygon class="fil19" points="16074.21,6089.52 16871.63,5889.91 16935.49,5929.37 17001.24,5871.14 17023.78,5749.04 17128.98,5741.52 17187.21,5831.68 17376.93,5842.96 17487.76,5730.25 17495.27,5931.24 17371.29,5961.3 17271.74,6105.94 17382.56,6143.51 17404.95,6232.04 17501.53,6115.77 17620.61,6050.14 17688.11,6104.52 17796.88,6128.9 17835.32,6027.63 17911.27,6011.69 17925.33,5917.94 18003.15,5843.86 18089.41,5902.94 18238.49,5750.11 18229.12,5668.53 18331.32,5651.65 18531.96,5504.44 18550.71,5417.25 18690.42,5413.5 18793.56,5326.3 18836.69,5369.43 18789.81,5526.95 18664.17,5544.77 18705.42,5646.02 19375.81,6089.52 18283.45,7716.24 "/>
  <polygon class="fil18" points="16074.21,6089.52 15505.3,8201.31 15038.57,7533.01 "/>
  <polygon class="fil19" points="16074.21,6089.52 14769.65,5324.33 14874.84,5204.28 14988.5,5239.98 15032.63,5155.45 15030.75,5055.89 15158.49,5061.52 15224.24,4924.4 15310.64,4952.58 15301.25,4826.72 15434.62,4930.03 15485.34,4890.59 15643.13,4915.01 15761.47,5020.2 15887.32,5040.86 15971.85,4933.79 16140.91,4939.43 16225.45,5082.19 16232.96,5273.79 16338.15,5377.1 16291.19,5446.6 16339.8,5630.57 16246.97,5655.11 16338.15,5805.39 16428.32,5735.88 16490.31,5805.39 16559.81,5797.88 16595.5,5688.92 16760.8,5690.81 16766.43,5613.79 16834.06,5581.85 16897.92,5658.87 16903.56,5777.21 16871.63,5889.91 "/>
  <polygon class="fil19" points="15038.57,7533.01 14277.5,5418.64 14508.55,5358.32 14662.58,5285.06 14769.65,5324.33 16074.21,6089.52 "/>
  <polygon class="fil18" points="12807.24,6668.7 13113.82,5793.59 13137.3,5703.43 13426.58,5649.9 13505.48,5695.92 13593.76,5648.96 13678.29,5703.43 13710.42,5557.79 13798.51,5532.5 13840.78,5478.96 13933.76,5491.17 14042.7,5395.89 14046.45,5478.96 14277.5,5418.64 15038.57,7533.01 "/>
  <polygon class="fil20" points="12807.24,6668.7 12056.25,5909.12 12149.24,5889.4 12195.26,5928.85 12265.7,5926.97 12287.3,5892.22 12427.25,5900.67 12455.42,5968.29 12556.86,5829.29 12731.56,5837.74 12770.07,5772.93 12911.89,5780.45 13018.95,5738.18 13113.82,5793.59 "/>
  <polygon class="fil13" points="12502.09,7716.24 11935.1,7950.05 11872.17,7977.29 11806.34,8278.67 11522.7,8365.08 11319.82,8336.9 11139.5,8199.78 11013.64,8428.95 10883.38,8411.95 10893.42,8335.03 10604.14,8274.92 10465.13,8120.88 10028.42,8377.73 13581.04,9650.12 "/>
  <polygon class="fil18" points="12502.09,7716.24 12008.36,6671.77 11950.13,6616.35 11718.14,6620.11 11713.44,6708.4 11574.43,6829.56 11695.6,7117.89 11541.57,7254.09 11425.1,7232.48 11312.39,7337.67 11235.26,7358.04 11257.92,7443.81 11399.74,7496.41 11364.99,7598.78 11619.52,7650.44 11660.85,7773.48 11882.5,7838.28 11935.1,7950.05 "/>
  <polygon class="fil18" points="12807.24,6668.7 12502.09,7716.24 15505.3,8201.31 "/>
  <polygon class="fil19" points="12807.24,6668.7 12056.25,5909.12 12010.23,5830.23 11897.53,5837.74 11879.68,5886.58 11817.69,5884.7 11784.82,5959.84 11883.44,6024.64 11723.77,6129.84 12028.62,6194.51 12013.05,6267.91 11867.47,6285.75 11846.81,6389.06 12231.89,6560.94 "/>
  <polygon class="fil13" points="12807.24,6668.7 12502.09,7716.24 12008.36,6671.77 12220.62,6671.77 12231.89,6560.94 "/>
  <polygon class="fil12" points="6487.22,9310.26 10028.42,8377.73 7506.08,9361.15 "/>
  <polygon class="fil8" points="6350.27,10402.84 6565.63,10530.71 6800.21,10699.92 6984.29,10594.73 7108.27,10658.6 7266.05,10718.71 7292.35,10932.85 7209.7,11023.02 7239.76,11128.21 7236,11252.18 7164.62,11391.19 6939.26,11639.17 6926.12,11718.04 8467.4,11041.15 7506.08,9361.15 "/>
 </g>
</svg>
