<svg xmlns="http://www.w3.org/2000/svg" xmlns:xlink="http://www.w3.org/1999/xlink" xmlns:xodm="http://www.corel.com/coreldraw/odm/2003" xml:space="preserve" width="210mm" height="297mm" version="1.1" style="shape-rendering:geometricPrecision; text-rendering:geometricPrecision; image-rendering:optimizeQuality; fill-rule:evenodd; clip-rule:evenodd" viewBox="0 0 21000 29700" preserveAspectRatio="xMinYMin meet"><rect id="svgEditorBackground" x="0" y="0" width="21000" height="29700" style="fill:none;stroke:none"/>
 <defs>
  <style type="text/css">
   <![CDATA[
    .str0 {stroke:#FEFEFE;stroke-width:20;stroke-miterlimit:22.9256}
    .str1 {stroke:#265D94;stroke-width:20;stroke-miterlimit:22.9256}
    .str2 {stroke:#265D94;stroke-width:20;stroke-miterlimit:22.9256;stroke-dasharray:40.000000 20.000000}
    .fil3 {fill:none}
    .fil0 {fill:#FEFEFE}
    .fil1 {fill:#265D94}
    .fil2 {fill:#265D94;fill-rule:nonzero}
   ]]>
  </style>
 </defs>
 <g id="Слой_x0020_1">
  <metadata id="CorelCorpID_0Corel-Layer"/>
  <circle class="fil0 str0" cx="11089.100000" cy="11581.600000" r="2975.400000" transform="matrix(3.56127 0 0 3.56127 -17613 -25133.3)"/>
  <path class="fil1" d="M9661.5,10144.3l2.1,168.4l2355.4,0l0,1979.6l-2769.4,0c-29.8,-2,-41.3,-4.9,-71.4,-15.3c-88.8,-30.6,-117.7,-129.8,-118.5,-204.5c-1.2,-114.5,55.3,-187.3,169.2,-206.2c19.8,-3.3,36.2,-3.2,56.1,-3.2l226.8,0l0,-2041.2l-316.2,0c-188.7,10.1,-310.5,166.4,-315.6,340.9c-18.8,647.8,-0.7,1323.8,-0.7,1974.7c-7.9,158.6,119.5,303,310,303c991.1,0,1982.2,0,2973.3,0l0,-2284.3l-2500.9,-11.9Z" transform="matrix(4.59355 0 0 4.59355 -28583.2 -37632.3)"/>
  <path class="fil2" d="M11081.3,11548.6c3.3,-2.2,6.6,-4.5,9.9,-6.7c3.2,-2.3,6.3,-4.5,9.4,-6.7c3.1,-2.2,6,-4.4,8.8,-6.5c2.8,-2.1,5.3,-4.1,7.7,-6c4.8,-3.8,8.7,-7,11.5,-9.3c1.4,-1.1,2.5,-2,3.2,-2.7c0.7,-0.6,1.1,-1,1.1,-1c0,0,-0.3,-2.2,-0.9,-6c-0.3,-1.9,-0.6,-4.3,-1,-6.9c-0.4,-2.7,-0.9,-5.7,-1.5,-8.9c-2.3,-13.1,-5.9,-30.5,-10.5,-47.6c-4.5,-17.1,-10.1,-34,-14.7,-46.5c-1.2,-3.1,-2.3,-6,-3.2,-8.5c-0.5,-1.3,-1,-2.4,-1.4,-3.5c-0.4,-1.1,-0.9,-2.1,-1.2,-3c-1.5,-3.6,-2.3,-5.6,-2.3,-5.6c0,0,-2,-0.4,-5.5,-1c-3.5,-0.6,-8.6,-1.4,-14.6,-2.3c-3,-0.5,-6.2,-0.9,-9.7,-1.4c-3.4,-0.4,-7.1,-0.9,-10.8,-1.3c-3.7,-0.4,-7.6,-0.8,-11.5,-1.1c-3.9,-0.4,-7.9,-0.6,-11.9,-0.9c-4,-0.3,-7.9,-0.5,-11.8,-0.7c-1.7,-0.1,-3.4,-0.1,-5,-0.2c-7,-13.5,-14.5,-26.5,-22.7,-39.2c2.6,-4.8,5.1,-9.9,7.7,-15c3.5,-7.2,6.8,-14.4,9.9,-21.3c3.1,-6.9,5.7,-13.4,8,-19.1c2.3,-5.7,4.1,-10.5,5.3,-13.8c1.2,-3.3,1.9,-5.3,1.9,-5.3c0,0,-1.4,-1.8,-3.7,-4.8c-1.2,-1.5,-2.7,-3.3,-4.4,-5.4c-1.7,-2.1,-3.6,-4.5,-5.7,-7c-2.2,-2.5,-4.4,-5.3,-6.9,-8.2c-2.5,-2.8,-5.2,-5.9,-8,-8.9c-2.8,-3.1,-5.8,-6.2,-8.7,-9.4c-3.1,-3.1,-6.1,-6.3,-9.2,-9.5c-3.2,-3.1,-6.3,-6.2,-9.5,-9.2c-3.2,-3,-6.3,-5.9,-9.4,-8.7c-3.1,-2.8,-6.1,-5.4,-8.9,-8c-2.9,-2.5,-5.6,-4.8,-8.2,-6.9c-2.5,-2.2,-4.9,-4,-7,-5.7c-2.1,-1.7,-3.9,-3.2,-5.4,-4.4c-3.1,-2.4,-4.8,-3.7,-4.8,-3.7c0,0,-1.9,0.7,-5.3,1.9c-3.3,1.2,-8.1,3,-13.8,5.3c-5.7,2.3,-12.1,4.9,-19,8c-6.9,3.1,-14.1,6.3,-21.3,9.9c-5.1,2.6,-10.2,5.1,-15,7.7c-12.7,-8.2,-25.8,-15.7,-39.2,-22.7c-0.1,-1.7,-0.1,-3.3,-0.2,-5c-0.2,-3.9,-0.4,-7.8,-0.7,-11.8c-0.3,-4,-0.6,-8,-0.9,-11.9c-0.4,-3.9,-0.7,-7.7,-1.1,-11.5c-0.4,-3.8,-0.8,-7.4,-1.3,-10.8c-0.5,-3.4,-0.9,-6.7,-1.4,-9.7c-0.9,-6,-1.7,-11.1,-2.3,-14.6c-0.6,-3.5,-1,-5.5,-1,-5.5c0,0,-2,-0.9,-5.6,-2.3c-0.9,-0.4,-1.9,-0.8,-3,-1.2c-1.1,-0.4,-2.3,-0.9,-3.5,-1.4c-2.5,-1,-5.4,-2,-8.5,-3.2c-12.5,-4.6,-29.3,-10.1,-46.5,-14.7c-17.1,-4.6,-34.5,-8.2,-47.6,-10.5c-3.3,-0.5,-6.3,-1,-8.9,-1.5c-2.7,-0.5,-5,-0.7,-6.9,-1c-3.8,-0.5,-6,-0.8,-6,-0.8c0,0,-0.3,0.4,-1,1.1c-0.6,0.7,-1.5,1.8,-2.7,3.2c-2.3,2.8,-5.5,6.7,-9.3,11.5c-1.9,2.4,-3.9,4.9,-6,7.7c-2.1,2.8,-4.3,5.7,-6.5,8.8c-2.2,3,-4.5,6.2,-6.7,9.4c-2.3,3.2,-4.5,6.6,-6.7,9.8c-2.2,3.3,-4.4,6.6,-6.4,9.9c-0.9,1.4,-1.8,2.9,-2.7,4.3c-7.5,-0.4,-15.1,-0.5,-22.7,-0.5c-5.1,0,-10.1,0.1,-15.1,0.3l0,228.3l-61.5,0l0,-292.8l-0.1,0c-1.9,0.3,-4.2,0.6,-6.9,1c-2.7,0.4,-5.7,0.9,-8.9,1.5c-13.1,2.3,-30.5,5.9,-47.6,10.5c-17.1,4.5,-34,10.1,-46.5,14.7c-3.1,1.2,-6,2.3,-8.5,3.2c-1.3,0.5,-2.4,0.9,-3.5,1.4c-1.1,0.4,-2.1,0.8,-3,1.2c-3.6,1.5,-5.6,2.3,-5.6,2.3c0,0,-0.4,2,-1,5.5c-0.6,3.5,-1.4,8.6,-2.3,14.6c-0.5,3,-0.9,6.3,-1.4,9.7c-0.4,3.4,-0.9,7.1,-1.3,10.8c-0.4,3.8,-0.8,7.6,-1.1,11.5c-0.4,3.9,-0.6,7.9,-0.9,11.9c-0.3,4,-0.5,7.9,-0.7,11.8c-0.1,1.7,-0.1,3.4,-0.2,5c-13.5,6.9,-26.5,14.5,-39.2,22.7c-4.8,-2.6,-9.9,-5.1,-15,-7.7c-7.2,-3.5,-14.4,-6.8,-21.3,-9.9c-6.9,-3.1,-13.4,-5.7,-19.1,-8c-5.7,-2.3,-10.5,-4.1,-13.8,-5.3c-3.3,-1.2,-5.3,-1.9,-5.3,-1.9c0,0,-1.8,1.4,-4.8,3.7c-1.5,1.2,-3.3,2.7,-5.4,4.4c-2.1,1.7,-4.5,3.6,-7,5.7c-2.5,2.2,-5.3,4.5,-8.2,6.9c-2.8,2.5,-5.9,5.2,-8.9,8c-3,2.8,-6.2,5.8,-9.4,8.7c-3.1,3,-6.3,6.1,-9.5,9.2c-3.1,3.2,-6.2,6.4,-9.2,9.5c-3,3.2,-5.9,6.3,-8.7,9.4c-2.8,3.1,-5.4,6.1,-8,8.9c-2.5,2.9,-4.8,5.7,-6.9,8.2c-2.2,2.5,-4,4.9,-5.7,7c-1.7,2.1,-3.2,3.9,-4.4,5.4c-2.4,3.1,-3.7,4.8,-3.7,4.8c0,0,0.7,1.9,1.9,5.3c1.2,3.3,3,8.1,5.3,13.8c2.3,5.6,4.9,12.1,8,19.1c3.1,6.9,6.3,14.1,9.9,21.3c2.6,5.1,5.1,10.2,7.7,15c-8.2,12.7,-15.7,25.8,-22.7,39.2c-1.7,0.1,-3.3,0.1,-5,0.2c-3.9,0.2,-7.8,0.4,-11.8,0.7c-4,0.3,-8,0.6,-11.9,0.9c-3.9,0.4,-7.8,0.7,-11.5,1.1c-3.8,0.4,-7.4,0.8,-10.8,1.3c-3.4,0.5,-6.7,0.9,-9.7,1.4c-6,0.9,-11.1,1.7,-14.6,2.3c-3.5,0.6,-5.5,1,-5.5,1c0,0,-0.8,2,-2.3,5.6c-0.4,0.9,-0.8,1.9,-1.2,3c-0.4,1.1,-0.9,2.3,-1.4,3.5c-1,2.5,-2,5.4,-3.2,8.5c-4.6,12.5,-10.1,29.3,-14.7,46.5c-4.6,17.1,-8.2,34.5,-10.5,47.6c-0.5,3.3,-1,6.3,-1.5,8.9c-0.5,2.7,-0.7,5,-1,6.9c-0.5,3.8,-0.8,6,-0.8,6c0,0,0.4,0.3,1.1,1c0.7,0.6,1.8,1.5,3.2,2.7c2.8,2.3,6.7,5.5,11.5,9.3c2.4,1.9,4.9,3.9,7.7,6c2.8,2.1,5.7,4.3,8.8,6.5c3,2.2,6.2,4.5,9.4,6.7c3.2,2.3,6.6,4.5,9.9,6.7c3.3,2.2,6.6,4.4,9.9,6.5c1.4,0.9,2.9,1.8,4.3,2.7c-0.4,7.5,-0.5,15.1,-0.5,22.7c0,7.6,0.2,15.1,0.5,22.7c-1.4,0.9,-2.9,1.8,-4.3,2.7c-3.3,2.1,-6.6,4.3,-9.9,6.5c-3.3,2.2,-6.6,4.5,-9.9,6.7c-3.2,2.2,-6.4,4.5,-9.4,6.7c-3.1,2.2,-6,4.4,-8.8,6.5c-2.8,2.1,-5.3,4.1,-7.7,6c-4.8,3.7,-8.7,7,-11.5,9.2c-1.4,1.1,-2.5,2.1,-3.2,2.7c-0.7,0.6,-1.1,1,-1.1,1c0,0,0.3,2.2,0.8,6c0.3,1.9,0.6,4.3,1,6.9c0.4,2.7,0.9,5.7,1.5,8.9c2.3,13.1,5.9,30.5,10.5,47.6c4.5,17.1,10.1,34,14.7,46.5c1.2,3.1,2.3,6,3.2,8.5c0.5,1.3,1,2.4,1.4,3.5c0.4,1.1,0.8,2.1,1.2,3c1.5,3.6,2.3,5.6,2.3,5.6c0,0,2,0.4,5.5,1c3.5,0.6,8.6,1.4,14.6,2.3c3,0.5,6.2,0.9,9.7,1.4c3.4,0.4,7.1,0.8,10.8,1.3c3.8,0.4,7.6,0.8,11.5,1.1c3.9,0.4,7.9,0.6,11.9,0.9c4,0.3,7.9,0.5,11.8,0.7c1.7,0.1,3.4,0.1,5,0.2c6.9,13.5,14.5,26.5,22.7,39.2c-2.6,4.8,-5.1,9.9,-7.7,15c-3.5,7.2,-6.8,14.4,-9.9,21.3c-3.1,6.9,-5.7,13.4,-8,19c-2.3,5.7,-4.1,10.4,-5.3,13.8c-1.2,3.3,-1.9,5.3,-1.9,5.3c0,0,1.4,1.8,3.7,4.8c1.2,1.5,2.7,3.3,4.4,5.4c1.7,2.1,3.6,4.5,5.7,7c2.2,2.5,4.5,5.3,6.9,8.2c2.5,2.8,5.2,5.9,8,8.9c2.8,3.1,5.8,6.2,8.7,9.4c3.1,3.1,6.1,6.3,9.2,9.5c3.2,3.1,6.3,6.2,9.5,9.2c3.2,3,6.3,5.9,9.4,8.7c3.1,2.8,6.1,5.4,8.9,8c2.9,2.5,5.7,4.8,8.2,6.9c2.5,2.2,4.9,4,7,5.7c2.1,1.7,3.9,3.2,5.4,4.4c3.1,2.4,4.8,3.7,4.8,3.7c0,0,1.9,-0.7,5.3,-1.9c3.3,-1.2,8.1,-3,13.8,-5.3c5.7,-2.3,12.1,-4.9,19.1,-8c6.9,-3,14.1,-6.3,21.3,-9.9c5.1,-2.6,10.2,-5.1,15,-7.7c12.7,8.2,25.8,15.7,39.2,22.7c0.1,1.7,0.1,3.3,0.2,5c0.2,3.9,0.4,7.8,0.7,11.8c0.3,4,0.6,8,0.9,11.9c0.4,3.9,0.7,7.7,1.1,11.5c0.4,3.8,0.8,7.4,1.3,10.8c0.5,3.4,0.9,6.7,1.4,9.7c0.9,6,1.7,11.1,2.3,14.6c0.6,3.5,1,5.5,1,5.5c0,0,2,0.9,5.6,2.3c0.9,0.4,1.9,0.8,3,1.2c1.1,0.4,2.3,0.9,3.5,1.4c2.5,1,5.4,2,8.5,3.2c12.5,4.6,29.3,10.1,46.5,14.7c17.1,4.6,34.5,8.2,47.6,10.5c3.3,0.5,6.3,1,8.9,1.5c2.7,0.5,5,0.7,6.9,1c3.8,0.5,6,0.9,6,0.9c0,0,0.3,-0.4,0.9,-1.1c0.6,-0.7,1.5,-1.8,2.7,-3.2c2.3,-2.8,5.5,-6.7,9.3,-11.5c1.9,-2.4,3.9,-5,6,-7.7c2.1,-2.8,4.3,-5.7,6.5,-8.8c2.2,-3,4.5,-6.2,6.7,-9.4c2.3,-3.2,4.5,-6.6,6.7,-9.8c2.2,-3.3,4.4,-6.6,6.5,-9.9c0.9,-1.4,1.8,-2.9,2.7,-4.3c7.5,0.4,15.1,0.5,22.7,0.5c7.6,0,15.1,-0.2,22.7,-0.5c0.9,1.4,1.8,2.9,2.7,4.3c2.1,3.3,4.2,6.6,6.4,9.9c2.2,3.3,4.5,6.6,6.7,9.8c2.2,3.2,4.5,6.4,6.7,9.4c2.2,3.1,4.4,6,6.5,8.8c2.1,2.8,4.1,5.3,6,7.7c3.8,4.8,7,8.7,9.3,11.5c1.1,1.4,2.1,2.5,2.7,3.2c0.6,0.7,1,1.1,1,1.1c0,0,2.2,-0.3,6,-0.9c1.9,-0.3,4.3,-0.6,6.9,-1c2.7,-0.4,5.7,-0.9,8.9,-1.5c13.1,-2.3,30.5,-5.9,47.6,-10.5c17.1,-4.5,34,-10.1,46.5,-14.7c3.1,-1.2,6,-2.3,8.5,-3.2c1.3,-0.5,2.4,-0.9,3.5,-1.4c1.1,-0.4,2.1,-0.8,3,-1.2c3.6,-1.5,5.6,-2.3,5.6,-2.3c0,0,0.4,-2,1,-5.5c0.6,-3.5,1.4,-8.6,2.3,-14.6c0.5,-3,0.9,-6.2,1.4,-9.7c0.4,-3.4,0.8,-7.1,1.3,-10.8c0.4,-3.8,0.8,-7.6,1.1,-11.5c0.4,-3.9,0.6,-7.9,0.9,-11.9c0.3,-4,0.5,-7.9,0.7,-11.8c0.1,-1.7,0.1,-3.4,0.2,-5c13.5,-6.9,26.5,-14.5,39.2,-22.7c4.8,2.6,9.9,5.1,15,7.7c7.1,3.5,14.4,6.8,21.3,9.9c6.9,3.1,13.4,5.7,19,8c5.7,2.3,10.4,4.1,13.8,5.3c3.3,1.2,5.3,1.9,5.3,1.9c0,0,1.8,-1.4,4.8,-3.7c1.5,-1.2,3.3,-2.7,5.4,-4.4c2.1,-1.7,4.5,-3.6,7,-5.7c2.5,-2.2,5.3,-4.5,8.2,-6.9c2.8,-2.5,5.9,-5.2,8.9,-8c3.1,-2.8,6.2,-5.8,9.4,-8.7c3.1,-3.1,6.3,-6.1,9.5,-9.2c3.1,-3.2,6.2,-6.4,9.2,-9.5c3,-3.2,5.9,-6.3,8.7,-9.4c2.8,-3.1,5.4,-6.1,8,-8.9c2.5,-2.9,4.8,-5.6,6.9,-8.2c2.2,-2.5,4,-4.9,5.7,-7c1.7,-2.1,3.2,-3.9,4.4,-5.4c2.4,-3.1,3.7,-4.8,3.7,-4.8c0,0,-0.7,-1.9,-1.9,-5.3c-1.2,-3.3,-3,-8.1,-5.3,-13.8c-2.3,-5.7,-4.9,-12.1,-8,-19c-3.1,-6.9,-6.4,-14.1,-9.9,-21.3c-2.6,-5.1,-5.1,-10.2,-7.7,-15c8.2,-12.7,15.7,-25.8,22.7,-39.2c1.6,-0.1,3.3,-0.1,5,-0.2c3.9,-0.2,7.8,-0.4,11.8,-0.7c4,-0.3,8,-0.6,11.9,-0.9c3.9,-0.4,7.8,-0.7,11.5,-1.1c3.8,-0.4,7.4,-0.8,10.8,-1.3c3.4,-0.5,6.7,-0.9,9.7,-1.4c6,-0.9,11.1,-1.7,14.6,-2.3c3.5,-0.6,5.5,-1,5.5,-1c0,0,0.9,-2,2.3,-5.6c0.4,-0.9,0.8,-1.9,1.2,-3c0.4,-1.1,0.9,-2.3,1.4,-3.5c0.9,-2.5,2,-5.4,3.2,-8.5c4.6,-12.5,10.1,-29.3,14.7,-46.5c4.6,-17.1,8.2,-34.5,10.5,-47.6c0.5,-3.3,1,-6.3,1.5,-8.9c0.5,-2.7,0.7,-5,1,-6.9c0.5,-3.8,0.9,-6,0.9,-6c0,0,-0.4,-0.3,-1.1,-1c-0.7,-0.6,-1.8,-1.5,-3.2,-2.7l-6.8,-5.5l-268,0l0,-61.4l214,0c0,-7.6,-0.2,-15.1,-0.5,-22.7c1.4,-0.9,2.9,-1.8,4.3,-2.7c3.3,-2.1,6.6,-4.2,9.9,-6.5Z" transform="matrix(4.59355 0 0 4.59355 -28583.2 -37632.3)"/>
  <circle class="fil0 str0" cx="10596.100000" cy="11580.400000" r="326.3" transform="matrix(4.59355 0 0 4.59355 -28583.2 -37632.3)"/>
  <circle class="fil1" cx="10596.100000" cy="11580.400000" r="108.1" transform="matrix(4.59355 0 0 4.59355 -28583.2 -37632.3)"/>
  <rect class="fil1" x="10563.100000" y="10793.400000" width="30.2" height="802.1" transform="matrix(4.59355 0 0 4.59355 -28583.2 -37632.3)"/>
  <rect class="fil1" transform="matrix(2.50605e-13 -9.46231 9.46231 2.50605e-13 21956.4 18062.3)" width="14.6" height="389.4" x="256.8" y="-203.2"/>
  <path class="fil3 str1" d="M10637.8,10880c30.4,-41,67.7,-76.3,110.3,-104.4c201.5,-133,472.7,-77.5,605.7,124c133,201.5,77.5,472.7,-124,605.7" transform="matrix(4.59355 0 0 4.59355 -28583.2 -37632.3)"/>
  <path class="fil3 str2" d="M10430.3,10761.9c46.4,-62.5,103.4,-116.5,168.3,-159.4c307.6,-203.1,721.5,-118.4,924.6,189.2c203.1,307.6,118.4,721.5,-189.2,924.6" transform="matrix(4.59355 0 0 4.59355 -28583.2 -37632.3)"/>
 </g>
</svg>